<?xml version="1.0" encoding="UTF-8"?>
<svg version="1.1" xmlns="http://www.w3.org/2000/svg" width="881" height="916">
<path d="M0 0 C290.73 0 581.46 0 881 0 C881 302.28 881 604.56 881 916 C590.27 916 299.54 916 0 916 C0 613.72 0 311.44 0 0 Z " fill="#FDFDFD" transform="translate(0,0)"/>
<path d="M0 0 C0.96321438 -0.00445784 1.92642877 -0.00891569 2.91883147 -0.01350862 C3.97426063 -0.01332426 5.0296898 -0.01313989 6.11710167 -0.01294994 C7.24052416 -0.01662663 8.36394665 -0.02030332 9.52141225 -0.02409142 C13.29984448 -0.0351372 17.07824921 -0.03897364 20.85669518 -0.04278088 C23.56023965 -0.04851283 26.26377999 -0.05567878 28.9673214 -0.0626936 C37.09035155 -0.08244506 45.21338293 -0.09252263 53.33643109 -0.10142139 C57.16352327 -0.10580652 60.99061406 -0.11117276 64.81770515 -0.11641026 C77.54298236 -0.13342137 90.26825871 -0.14791493 102.99354553 -0.155159 C106.29493397 -0.15706883 109.59632239 -0.15898917 112.8977108 -0.16094494 C113.71823537 -0.16142868 114.53875993 -0.16191242 115.38414888 -0.16241082 C128.67236046 -0.17070889 141.96048195 -0.19604256 155.2486542 -0.22852562 C168.89712071 -0.26161689 182.54554146 -0.27960963 196.19404829 -0.28280324 C203.85483346 -0.28496644 211.51548727 -0.29368724 219.17623329 -0.31926441 C225.70128222 -0.34099973 232.22616788 -0.34900798 238.75124891 -0.33929763 C242.07820668 -0.33476092 245.40455537 -0.33879522 248.73151207 -0.35605907 C252.3451882 -0.37375944 255.9580146 -0.3666797 259.57169151 -0.35352612 C260.61373635 -0.36449536 261.65578119 -0.37546461 262.72940314 -0.38676625 C269.66949297 -0.32592802 274.99060419 1.12092245 281.22534752 4.13422108 C282.43265524 4.71194367 282.43265524 4.71194367 283.66435301 5.30133742 C289.75838694 8.31964709 294.17531271 12.57903373 298.85034752 17.44672108 C299.56191002 18.16795155 300.27347252 18.88918201 301.00659752 19.63226795 C305.59374538 24.31603157 309.94589654 29.16992273 314.22534752 34.13422108 C318.8691381 39.38863996 323.56693287 44.52816156 328.56519127 49.44672108 C330.88337007 51.80308164 333.01772139 54.30202868 335.17847252 56.80218983 C342.3741806 65.00035342 349.92768484 72.88926576 357.41284752 80.82172108 C363.10318603 86.85337324 368.71809394 92.9345034 374.22534752 99.13422108 C375.64030618 100.71908097 377.05703822 102.302359 378.47534752 103.88422108 C379.21011314 104.70664295 379.94487877 105.52906483 380.70191002 106.37640858 C382.58664415 108.43619542 384.49171166 110.4528005 386.43628502 112.45453358 C401.20339158 127.75222028 406.70100311 141.00876312 406.59956932 162.13837147 C406.60231262 163.86404414 406.60636701 165.58971513 406.61161298 167.315382 C406.62216914 172.03940632 406.61409073 176.76324057 406.60286248 181.48725653 C406.59400289 186.58889574 406.60246907 191.69051056 406.60872459 196.79214954 C406.61820437 206.7791628 406.6116199 216.76610372 406.59946165 226.7531116 C406.58582783 238.38636807 406.58748074 250.01960739 406.58959498 261.65286982 C406.59278368 282.41131685 406.58112404 303.16972954 406.56152916 323.92816639 C406.54252554 344.06554682 406.53544177 364.20288701 406.54102135 384.34027576 C406.54708094 406.27494497 406.54689876 428.20959648 406.53553551 450.14426422 C406.53432824 452.48376115 406.53312225 454.82325808 406.53191757 457.16275501 C406.53101226 458.88931665 406.53101226 458.88931665 406.53008867 460.65075833 C406.52621144 468.75740005 406.52660239 476.86403518 406.52850342 484.97067738 C406.53062687 494.85157063 406.52538991 504.73242867 406.51088987 514.61331201 C406.5036528 519.65349919 406.49956301 524.69363513 406.50413322 529.73382664 C406.50821727 534.35017983 406.50302243 538.96642732 406.49050715 543.58276451 C406.48758559 545.25019395 406.48800283 546.9176334 406.49215022 548.58506024 C406.52752715 564.23215565 405.22666764 578.08358884 393.97534752 590.07172108 C387.69642496 595.89610884 380.81971185 599.57371906 372.22534752 600.13422108 C372.22534752 600.79422108 372.22534752 601.45422108 372.22534752 602.13422108 C281.14534752 602.13422108 190.06534752 602.13422108 96.22534752 602.13422108 C97.32231378 598.84332228 98.07336608 598.16625391 100.66284752 596.00922108 C104.79874928 592.50560645 108.82104068 588.89451955 112.83081627 585.24750233 C114.01610924 584.20142811 114.01610924 584.20142811 115.22534752 583.13422108 C115.8934756 582.4407835 116.56160368 581.74734592 117.24997807 581.03289509 C121.54895203 578.28958866 125.22420032 578.58686499 130.22579002 578.64215565 C131.74893823 578.63513716 131.74893823 578.63513716 133.3028571 578.62797689 C136.70997627 578.61703237 140.11635882 578.63454633 143.52344322 578.6517992 C145.96437358 578.64961369 148.4053029 578.64561751 150.84622765 578.63994312 C156.10531755 578.63137079 161.3641963 578.63472546 166.6232605 578.64836597 C174.23565664 578.66773907 181.84786668 578.66128496 189.46026769 578.64779216 C201.82264395 578.62620988 214.1849763 578.61949718 226.547369 578.62494373 C227.28710609 578.62526437 228.02684318 578.625585 228.78899654 578.62591535 C234.78935768 578.62862739 240.78971837 578.63205787 246.79007912 578.63552094 C252.03079019 578.63851559 257.27150131 578.64122408 262.51221275 578.64349842 C263.25013781 578.64382393 263.98806287 578.64414944 264.74834929 578.64448482 C277.06118798 578.6494304 289.37396575 578.63873546 301.6867854 578.61692667 C309.27779464 578.60423962 316.86855245 578.60566044 324.45954802 578.62537754 C330.27908465 578.63949562 336.09846185 578.63337224 341.91799355 578.61987972 C344.30283891 578.61774798 346.68770182 578.62247557 349.0725174 578.63458538 C352.32998325 578.65019311 355.58650572 578.64122757 358.84395409 578.62628651 C359.78608688 578.6367754 360.72821968 578.6472643 361.69890195 578.65807104 C368.54619401 578.58820806 373.69968187 577.41200753 378.80724168 572.66354525 C383.92954189 566.1312711 382.91569826 557.66328114 382.85353661 549.79922962 C382.85858443 548.12192468 382.86581509 546.44462512 382.87503475 544.76733792 C382.89395006 540.16777555 382.88172741 535.56874543 382.86431181 530.96919656 C382.85093723 526.00527572 382.86637514 521.04143272 382.87813377 516.07751942 C382.89651319 506.35756612 382.88799634 496.63781384 382.87004555 486.91786681 C382.85602175 479.01954326 382.85212628 471.1212743 382.85548782 463.22293949 C382.85596527 462.09895908 382.85644271 460.97497868 382.85693462 459.81693826 C382.85796094 457.5336429 382.8590163 455.25034756 382.86010038 452.96705224 C382.86866785 432.777455 382.85199 412.58795485 382.82227135 392.39838123 C382.79342618 372.80198559 382.78635399 353.20572978 382.80176353 333.60931873 C382.81851816 312.27311399 382.82256803 290.93697563 382.80505317 269.60076916 C382.80320877 267.32646983 382.80137404 265.05217048 382.7995491 262.77787113 C382.79863701 261.65884654 382.79772492 260.53982194 382.79678519 259.38688751 C382.7911758 251.4957883 382.79449067 243.60472146 382.80109406 235.713624 C382.80881914 226.10042367 382.80210416 216.48736107 382.77691901 206.87418853 C382.76440574 201.96812527 382.75829967 197.06227665 382.76946068 192.15620518 C382.77948084 187.66692417 382.77109105 183.17807175 382.7478795 178.68884303 C382.74270833 177.0631522 382.74430338 175.43742315 382.75327415 173.81174885 C382.76444405 171.60425566 382.75106269 169.39821803 382.73150539 167.19081402 C382.73031391 165.96409729 382.72912243 164.73738056 382.72789484 163.4734906 C382.03598203 158.87594673 380.07461825 155.55823756 376.37378502 152.70843983 C375.78855064 152.41582264 375.20331627 152.12320545 374.60034752 151.82172108 C372.80868085 150.92588774 371.01701419 150.03005441 369.22534752 149.13422108 C366.79616828 149.03289636 364.39469806 148.99056509 361.96509361 148.99237537 C361.2168734 148.98890095 360.46865318 148.98542652 359.69775963 148.98184681 C358.06955651 148.97448555 356.44134333 148.96914214 354.81312752 148.96555614 C352.23150824 148.95839188 349.65007918 148.94272358 347.06851768 148.92421436 C339.72710416 148.87175796 332.38579188 148.82381332 325.04419518 148.80829334 C320.55480436 148.79818025 316.0658879 148.76876678 311.57668495 148.72697353 C309.86960638 148.71470056 308.16246066 148.70953549 306.45533943 148.71177197 C296.5982403 148.72150343 289.17584719 148.65238809 281.01831627 142.45843983 C280.48851158 141.91832264 279.95870689 141.37820545 279.41284752 140.82172108 C278.87015221 140.28933826 278.32745689 139.75695545 277.76831627 139.20843983 C273.34161984 133.25761501 272.78933803 127.81856413 272.84058189 120.63812733 C272.83252274 119.24894596 272.83252274 119.24894596 272.82430077 117.83170033 C272.8145548 115.83090768 272.81156895 113.83007292 272.81465721 111.82925892 C272.81915055 108.65930605 272.80509229 105.4899069 272.7862606 102.32001209 C272.74332207 94.44963792 272.73223822 86.57927677 272.72003746 78.70880604 C272.70849625 72.05083936 272.68489865 65.39312573 272.64534569 58.73526478 C272.63179961 55.61822254 272.6359416 52.50152522 272.64075279 49.38446522 C272.63140984 47.46641065 272.62124044 45.54835987 272.61011314 43.63031483 C272.61626137 42.76880817 272.62240959 41.90730152 272.62874413 41.01968861 C272.57544307 35.77406653 272.01346607 31.73359393 269.22534752 27.13422108 C263.35920957 22.82345702 258.59503937 22.56055155 251.45290184 22.61955738 C250.37859112 22.61261185 249.3042804 22.60566632 248.19741482 22.59851032 C244.60307935 22.58023646 241.00940361 22.59050623 237.41504478 22.60077381 C234.83588734 22.59371559 232.25673403 22.58497098 229.67758751 22.57466602 C223.40259785 22.55304793 217.12778969 22.55314725 210.85277504 22.56129157 C205.75144796 22.56759706 200.65017373 22.56644952 195.5488472 22.56001949 C194.82218541 22.55911784 194.09552361 22.55821618 193.34684176 22.55728721 C191.87052734 22.55543596 190.39421293 22.5535734 188.91789853 22.55169965 C175.08053863 22.53512875 161.24328076 22.54383424 147.40592699 22.56068522 C134.75346164 22.57538083 122.10123379 22.56075459 109.44879902 22.53191506 C96.44885021 22.50250469 83.44901096 22.49155359 70.44903034 22.50109726 C68.97790811 22.50211979 67.50678587 22.5031144 66.0356636 22.50408077 C65.31189322 22.50455716 64.58812283 22.50503355 63.84242 22.50552438 C58.74949061 22.50768639 53.65666519 22.4978958 48.56375885 22.48330975 C41.70426179 22.46393781 34.84521324 22.47089399 27.98573494 22.49550915 C25.46866451 22.50052157 22.95156051 22.49701624 20.43451691 22.48436069 C16.99742815 22.4684467 13.56179676 22.48336797 10.12477684 22.50603199 C9.12953501 22.49419626 8.13429318 22.48236053 7.1088925 22.47016615 C0.60352709 22.55726975 -3.74961877 23.91782473 -8.77465248 28.13422108 C-14.37079917 34.57742194 -13.34998132 42.61517242 -13.32055092 50.70819569 C-13.32929249 52.2954252 -13.33978031 53.88264591 -13.35187721 55.4698534 C-13.37968658 59.76482688 -13.38314302 64.05951209 -13.38215733 68.35456252 C-13.38529079 72.84828377 -13.41091802 77.34187602 -13.43413734 81.83553028 C-13.47466769 90.33866922 -13.49503108 98.84173152 -13.50811124 107.34495217 C-13.52399133 117.02819119 -13.56241122 126.7113 -13.60270452 136.39446342 C-13.68506287 156.307673 -13.73918038 176.2208764 -13.77465248 196.13422108 C-14.43465248 196.13422108 -15.09465248 196.13422108 -15.77465248 196.13422108 C-16.12914467 195.36722889 -16.48363686 194.6002367 -16.84887123 193.81000233 C-25.12602858 175.80489134 -25.12602858 175.80489134 -36.77465248 160.13422108 C-36.87722809 158.51199511 -36.90985373 156.88530397 -36.91509438 155.25984669 C-36.92080452 154.20432606 -36.92651466 153.14880543 -36.93239784 152.06129932 C-36.9335157 150.89306126 -36.93463356 149.72482319 -36.93578529 148.52118397 C-36.9407502 147.29839741 -36.9457151 146.07561085 -36.95083046 144.81577015 C-36.96296887 141.44954683 -36.97040634 138.0833859 -36.97484112 134.71714807 C-36.9777704 132.61196737 -36.98187518 130.50679214 -36.98634529 128.40161419 C-37.00003491 121.80962367 -37.00969138 115.21764564 -37.01354718 108.62564188 C-37.01801577 101.02787518 -37.03550133 93.43028947 -37.06454778 85.83257776 C-37.08623087 79.95558848 -37.09625517 74.07864982 -37.0975883 68.201621 C-37.09863266 64.69462283 -37.10445972 61.18779446 -37.12240791 57.68083858 C-37.14209193 53.75777079 -37.13757332 49.83492476 -37.13109779 45.91180897 C-37.14031258 44.76178898 -37.14952736 43.61176899 -37.15902138 42.42689991 C-37.090345 29.09772171 -33.15241986 20.04612547 -24.04808998 10.28265858 C-17.46358345 4.19745112 -9.01330687 0.01938817 0 0 Z " fill="#1198CC" transform="translate(389.7746524810791,80.86577892303467)"/>
<path d="M0 0 C5.95703506 2.76080935 8.80305831 7.25826106 11.6875 12.9375 C12.41831223 14.32280956 13.15135685 15.70694392 13.88671875 17.08984375 C14.40758057 18.08540283 14.40758057 18.08540283 14.93896484 19.10107422 C16.11511694 21.27984947 16.11511694 21.27984947 18.26953125 24.25390625 C20 27 20 27 20 31 C20.66 31 21.32 31 22 31 C23.04638672 32.44262695 23.04638672 32.44262695 24.1796875 34.48828125 C24.60854248 35.24874756 25.03739746 36.00921387 25.47924805 36.79272461 C26.17014526 38.04001343 26.17014526 38.04001343 26.875 39.3125 C31.40321408 47.35185929 36.19069352 55.16459702 41.29052734 62.85473633 C41.77602051 63.60263428 42.26151367 64.35053223 42.76171875 65.12109375 C43.19444092 65.7752124 43.62716309 66.42933105 44.07299805 67.10327148 C45 69 45 69 45 73 C45.66 73 46.32 73 47 73 C48.26835805 74.86280584 49.43687201 76.79372612 50.5625 78.74609375 C50.90975128 79.34347855 51.25700256 79.94086334 51.61477661 80.55635071 C52.7500478 82.5128493 53.87490754 84.47513356 55 86.4375 C55.78161771 87.78788181 56.56400938 89.13781593 57.34716797 90.48730469 C58.8869393 93.14237766 60.42323869 95.79940173 61.95605469 98.45849609 C64.32555542 102.56755316 66.71778495 106.66292984 69.125 110.75 C69.49906982 111.38647461 69.87313965 112.02294922 70.25854492 112.67871094 C74.5449119 119.95504526 78.90739582 127.18593548 83.2578125 134.42407227 C89.02817649 144.0309446 94.73534758 153.67415929 100.42480469 163.32910156 C101.9812765 165.96825246 103.54082642 168.60555648 105.1015625 171.2421875 C111.62522525 182.26447206 118.1152579 193.30613645 124.58831787 204.35818481 C130.52370923 214.49149836 136.48155692 224.61131221 142.4609375 234.71875 C142.90598633 235.47285156 143.35103516 236.22695313 143.80957031 237.00390625 C144.79182171 238.65092991 145.80237266 240.28104133 146.8203125 241.90625 C148.4821152 244.85567466 148.55472299 246.67166204 148 250 C144.50121253 254.0481298 140.54898545 256.70754733 135.9375 259.3125 C135.2163501 259.72854492 134.4952002 260.14458984 133.75219727 260.57324219 C131.17307543 262.05762123 128.58676386 263.52898043 126 265 C123.83310827 266.23788737 121.66645573 267.47619349 119.5 268.71484375 C115.93474739 270.75282396 112.36880607 272.78957047 108.80053711 274.82226562 C101.00260761 279.26684089 93.24100013 283.76925363 85.5 288.3125 C77.06954718 293.2591612 68.5700967 298.05630545 59.9765625 302.71411133 C59.20183594 303.1345874 58.42710937 303.55506348 57.62890625 303.98828125 C56.94900635 304.35477783 56.26910645 304.72127441 55.56860352 305.09887695 C54.00881646 305.90421547 54.00881646 305.90421547 53 307 C49.8125 307.125 49.8125 307.125 46 306 C44.60742188 304.41796875 44.60742188 304.41796875 43.28125 302.3125 C42.50841675 301.09071045 42.50841675 301.09071045 41.7199707 299.84423828 C38.70020409 294.8505859 35.72766953 289.83233891 32.79724121 284.78591919 C30.91081787 281.53759198 29.01529875 278.29457465 27.12109375 275.05078125 C26.75456696 274.42253952 26.38804016 273.79429779 26.01040649 273.14701843 C23.45360914 268.76712132 20.8723385 264.40342605 18.25 260.0625 C13.98143604 252.99269093 9.78774666 245.87945227 5.60253906 238.76000977 C4.8170166 237.42667603 4.8170166 237.42667603 4.015625 236.06640625 C3.51087646 235.20942139 3.00612793 234.35243652 2.48608398 233.46948242 C0.69067167 230.48597732 -1.19436917 227.56655377 -3.11987305 224.66552734 C-4 223 -4 223 -4.0625 220.0625 C-3.19917136 217.57408215 -2.23628504 215.31573646 -1.125 212.9375 C5.76206218 197.8814772 5.84581395 180.69198142 1 165 C-4.00210579 152.49473552 -12.25216354 142.11571325 -23 134 C-23.57878906 133.56042969 -24.15757812 133.12085938 -24.75390625 132.66796875 C-33.50979736 126.61744692 -43.87032627 124.6575461 -54.3203125 123.98046875 C-57 123 -57 123 -58.6328125 119.85546875 C-58.85630371 119.22261963 -59.07979492 118.58977051 -59.31005859 117.93774414 C-60.42213877 114.81439653 -62.11436241 111.99698605 -63.75 109.125 C-64.12487549 108.46226074 -64.49975098 107.79952148 -64.88598633 107.11669922 C-69.92367456 98.28417021 -75.19794351 89.58931071 -80.44921875 80.8828125 C-81.04226807 79.89603516 -81.63531738 78.90925781 -82.24633789 77.89257812 C-83.40516116 75.98115699 -84.57863466 74.07853289 -85.76733398 72.18554688 C-86.5824646 70.87553711 -86.5824646 70.87553711 -87.4140625 69.5390625 C-87.89697754 68.7754541 -88.37989258 68.0118457 -88.87744141 67.22509766 C-90.70805405 63.59651922 -91.23435556 59.88925438 -90 56 C-86.41085765 50.80880752 -82.35384041 48.04527497 -76.9375 44.9375 C-75.31097025 43.97393176 -73.68602478 43.00768526 -72.0625 42.0390625 C-71.22460938 41.54051758 -70.38671875 41.04197266 -69.5234375 40.52832031 C-65.43290652 38.05088959 -61.43580195 35.43532806 -57.4375 32.8125 C-48.6560026 27.06407416 -39.82650104 21.39442629 -30.96704102 15.7668457 C-26.36668827 12.83596136 -21.79140828 9.89277945 -17.32421875 6.76171875 C-16.64399658 6.28822998 -15.96377441 5.81474121 -15.26293945 5.3269043 C-14.05721679 4.47948381 -12.86060664 3.61884465 -11.67651367 2.74145508 C-7.66834159 -0.07195565 -4.83677756 -0.76875935 0 0 Z " fill="#0268C5" transform="translate(277,168)"/>
<path d="M0 0 C-0.144375 0.53882813 -0.28875 1.07765625 -0.4375 1.6328125 C-3.60831573 15.68128773 -3.94334137 31.028741 1.90625 44.3203125 C3 47 3 47 3 51 C3.66 51 4.32 51 5 51 C6.06117255 52.58572943 7.0474337 54.22174792 8 55.875 C12.68625524 63.47911228 18.73832351 69.79162514 26 75 C24.64884957 78.11032154 23.26682549 79.83630125 20.625 81.9375 C7.76305271 92.96534289 -3.94421359 106.99939004 -10 123 C-10.495 123.79792969 -10.99 124.59585938 -11.5 125.41796875 C-13.19042672 128.32779183 -14.07128287 131.08133832 -15 134.3125 C-16.10428063 138.05103786 -17.21639191 141.73965285 -18.625 145.375 C-23.91108292 159.31103678 -24.41015969 174.07257116 -24.375 188.8125 C-24.37567978 189.93579712 -24.37567978 189.93579712 -24.37637329 191.08178711 C-24.34065081 211.38505001 -22.9052847 233.50318497 -13.875 252 C-13.25079017 253.28621002 -12.62711872 254.57268143 -12.00390625 255.859375 C-11.67664551 256.52904297 -11.34938477 257.19871094 -11.01220703 257.88867188 C-9.960342 260.08272128 -8.95859337 262.29469148 -7.96484375 264.515625 C0.50847121 283.29094361 11.43296735 299.53286725 25 315 C25.5151416 315.58958496 26.0302832 316.17916992 26.56103516 316.78662109 C42.96184324 335.43440977 63.17990567 349.36688978 85 361 C85.73589355 361.39711182 86.47178711 361.79422363 87.22998047 362.20336914 C94.21018339 365.84574006 101.43661015 368.50851688 108.875 371.0625 C109.81912247 371.38924713 109.81912247 371.38924713 110.78231812 371.72259521 C121.70127576 375.48217298 132.59329391 378.22060697 144 380 C142.4512456 383.48672455 140.35487655 386.18554031 137.9375 389.125 C135.19551253 392.38551023 135.19551253 392.38551023 133 396 C96.04 396 59.08 396 21 396 C21 395.34 21 394.68 21 394 C20.33097656 393.78214844 19.66195312 393.56429688 18.97265625 393.33984375 C15.04690481 391.57041833 11.85406437 389.16153661 8.4375 386.5625 C7.72859619 386.02536377 7.01969238 385.48822754 6.28930664 384.93481445 C-0.1667062 379.97901441 -6.15768461 374.66920975 -12 369 C-12.59167969 368.43410156 -13.18335938 367.86820313 -13.79296875 367.28515625 C-22.18097961 359.24304275 -29.78960496 350.9713844 -36.74121094 341.66015625 C-37.95388846 340.06081429 -39.21449574 338.49816299 -40.4765625 336.9375 C-47.43719383 328.27538101 -53.05843581 318.96315323 -58.62646484 309.359375 C-59.85480828 307.24940149 -61.10343338 305.15374984 -62.36328125 303.0625 C-66.79004024 295.64203258 -70.13636092 288.14865638 -73 280 C-73.49664108 278.68622533 -73.99618235 277.37353929 -74.5 276.0625 C-74.73074219 275.43472656 -74.96148437 274.80695313 -75.19921875 274.16015625 C-75.80894029 272.51539521 -76.44055497 270.87873193 -77.08203125 269.24609375 C-87.36270653 242.12469325 -91.34342139 213.91067871 -91.4375 185.0625 C-91.44376404 184.16510101 -91.45002808 183.26770203 -91.45648193 182.34310913 C-91.53263742 165.10375688 -89.43913541 148.43627601 -85.3125 131.6875 C-84.92795654 130.12322266 -84.92795654 130.12322266 -84.53564453 128.52734375 C-76.39663849 96.45549604 -62.04567097 67.22980738 -42 41 C-41.34515625 40.12988281 -40.6903125 39.25976562 -40.015625 38.36328125 C-10.33956612 0 -10.33956612 0 0 0 Z " fill="#0354B5" transform="translate(158,335)"/>
<path d="M0 0 C1.22333445 -0.00583219 2.44666891 -0.01166439 3.70707411 -0.01767331 C5.05625549 -0.0140405 6.40543638 -0.01021615 7.75461674 -0.00622082 C9.19436356 -0.00924231 10.63410878 -0.01313178 12.07385117 -0.01781338 C16.02595773 -0.02810234 19.97797366 -0.02590929 23.93008769 -0.02163279 C28.19396961 -0.01916722 32.45782962 -0.02817761 36.72170353 -0.03567028 C45.0732615 -0.04842375 53.42478734 -0.05021018 61.77635341 -0.04787002 C68.56391194 -0.04608751 75.3514607 -0.04783505 82.13901806 -0.05209446 C83.10478513 -0.05268965 84.0705522 -0.05328484 85.06558495 -0.05389806 C87.02748863 -0.0551098 88.9893923 -0.05632394 90.95129598 -0.05754044 C109.35245692 -0.06841836 127.75359953 -0.06625222 146.1547615 -0.06015559 C162.99174234 -0.05498556 179.82866534 -0.06624371 196.66563474 -0.08525381 C213.95166367 -0.10462142 231.23766522 -0.11289015 248.52370507 -0.10913056 C258.22939206 -0.10721696 267.93502982 -0.10972157 277.64070797 -0.1238451 C285.90270833 -0.1357461 294.16462913 -0.13717816 302.42663055 -0.12505493 C306.64217087 -0.11915739 310.85756557 -0.11809096 315.07309628 -0.13005733 C318.93268201 -0.14088604 322.79200002 -0.13784888 326.65157307 -0.12379565 C328.04720203 -0.1211404 329.44285177 -0.12354121 330.83846038 -0.13153151 C337.90510585 -0.1691796 343.56610985 -0.17707567 349.83080387 3.25447559 C351.15356443 3.6275619 352.48312464 3.98493975 353.83080387 4.25447559 C353.83080387 4.91447559 353.83080387 5.57447559 353.83080387 6.25447559 C354.51142887 6.46072559 355.19205387 6.66697559 355.89330387 6.87947559 C361.9823266 9.72965645 366.69239588 14.31391761 369.83080387 20.25447559 C372.83080387 31.25447559 372.83080387 31.25447559 372.83080387 56.25447559 C237.53080387 56.25447559 102.23080387 56.25447559 -37.16919613 56.25447559 C-37.16919613 22.68255185 -37.16919613 22.68255185 -28.73169613 13.87947559 C-27.99048519 13.08799122 -27.24927425 12.29650684 -26.48560238 11.48103809 C-19.11524973 4.39655073 -10.35450491 0.00851437 0 0 Z " fill="#0546A6" transform="translate(163.16919612884521,751.7455244064331)"/>
<path d="M0 0 C1.30445768 -0.00967334 1.30445768 -0.00967334 2.63526803 -0.0195421 C4.06929036 -0.01489629 4.06929036 -0.01489629 5.53228283 -0.01015663 C7.05498446 -0.0169533 7.05498446 -0.0169533 8.60844773 -0.02388728 C12.02623557 -0.03659575 15.44386538 -0.03490675 18.86167431 -0.03325844 C21.30555458 -0.03923969 23.74943296 -0.04604429 26.19330883 -0.05361366 C32.15264045 -0.06948131 38.11190941 -0.07572388 44.07125632 -0.07683842 C48.91524708 -0.07778831 53.75922477 -0.08189565 58.6032114 -0.08823967 C72.33414419 -0.10585685 86.06504568 -0.11507792 99.79598985 -0.11357872 C100.5364792 -0.11349881 101.27696855 -0.1134189 102.03989697 -0.11333656 C103.15198603 -0.11321392 103.15198603 -0.11321392 104.28654154 -0.1130888 C116.30039074 -0.112276 128.31411453 -0.13141089 140.32792745 -0.1596133 C152.66101569 -0.18833689 164.99404276 -0.20215385 177.32716531 -0.20042574 C184.25230463 -0.19976161 191.17731254 -0.205264 198.10242176 -0.22678185 C204.61540309 -0.24688918 211.1281541 -0.24632526 217.64116573 -0.23174858 C220.03329975 -0.22965267 222.42545091 -0.23440762 224.81755543 -0.2464695 C228.0802156 -0.26185691 231.34190976 -0.25265604 234.60454845 -0.23720741 C235.55387117 -0.24749454 236.50319389 -0.25778167 237.48128396 -0.26838052 C243.19768251 -0.20846099 246.38511149 0.48475516 250.75889111 4.25726891 C252.68696795 8.1134226 252.03078484 12.82776723 252.07139111 17.06976891 C252.10039501 18.06814781 252.12939892 19.06652672 252.15928173 20.09515953 C252.22331327 27.48833902 252.22331327 27.48833902 249.86435986 31.39398766 C246.95240539 33.97098632 245.41541231 34.3825898 241.62521267 34.39428329 C240.75408187 34.39935784 239.88295107 34.40443238 238.98542237 34.4096607 C238.0226037 34.41015845 237.05978503 34.41065621 236.06779003 34.41116905 C235.04942649 34.41555131 234.03106294 34.41993356 232.9818399 34.42444861 C229.54717026 34.43787285 226.1125263 34.44402359 222.67783642 34.45014 C220.22425246 34.45803807 217.77066968 34.46630683 215.31708813 34.47492027 C207.93778215 34.49890632 200.5584804 34.51407289 193.17914879 34.52698034 C191.09533146 34.5306916 189.0115148 34.53466488 186.92769814 34.53873301 C173.99102027 34.563969 161.05434136 34.58602491 148.11764431 34.59846115 C145.1204557 34.60139091 142.12326713 34.60435257 139.12607861 34.60736656 C138.38112978 34.60811261 137.63618095 34.60885866 136.86865792 34.60962732 C124.79976152 34.62228211 112.7310124 34.65550616 100.66218486 34.69716839 C88.27489564 34.73957987 75.88768184 34.76315527 63.5003202 34.76838171 C56.54382015 34.77179677 49.58755026 34.78356264 42.63112164 34.81648445 C36.08777075 34.84740033 29.54474857 34.85290623 23.0013113 34.84110069 C20.59787915 34.84087927 18.1944288 34.84924071 15.79106045 34.86675453 C12.51286158 34.88934561 9.23613181 34.88119667 5.95792675 34.86527061 C4.52708307 34.88609375 4.52708307 34.88609375 3.06733346 34.90733755 C-1.32240279 34.85469457 -4.32218132 34.66424377 -7.83300114 31.87600708 C-10.48911911 28.98756593 -10.98739737 27.9776115 -10.93251514 24.13226891 C-10.92671436 23.17836266 -10.92091358 22.22445641 -10.91493702 21.24164391 C-10.87819874 20.25680016 -10.84146046 19.27195641 -10.80360889 18.25726891 C-10.8016753 17.27242516 -10.79974171 16.28758141 -10.79774952 15.27289391 C-10.63285725 6.23435444 -10.63285725 6.23435444 -7.24110889 2.25726891 C-4.14548125 0.19351714 -3.50034477 0.00655769 0 0 Z " fill="#024FB0" transform="translate(280.24110889434814,593.7427310943604)"/>
<path d="M0 0 C41.58 0 83.16 0 126 0 C123.525 1.98 123.525 1.98 121 4 C107.92473792 15.2898125 98.58643447 26.46669679 93.25 43.125 C93.03899658 43.78193848 92.82799316 44.43887695 92.6105957 45.11572266 C92.41425537 45.7607373 92.21791504 46.40575195 92.015625 47.0703125 C91.84321289 47.63508301 91.67080078 48.19985352 91.49316406 48.78173828 C89.03935206 59.81903324 89.45622059 72.05070585 89 83 C53.69 83 18.38 83 -18 83 C-16.37588335 79.7517667 -14.67394922 76.896517 -12.6875 73.875 C-4.37351987 60.84460051 2.17536966 46.62388367 2.1875 31 C2.20586914 29.84757813 2.20586914 29.84757813 2.22460938 28.671875 C2.24749644 18.96775963 0.98001536 9.80015358 0 0 Z " fill="#0340A1" transform="translate(331,648)"/>
<path d="M0 0 C0.71353638 -0.00336868 1.42707275 -0.00673737 2.16223145 -0.01020813 C3.6650313 -0.00991023 5.16789347 0.00525031 6.67041016 0.03442383 C8.96315979 0.07412196 11.25012325 0.05512275 13.54296875 0.02929688 C15.0078348 0.03685671 16.47268809 0.04781095 17.9375 0.0625 C18.95801453 0.05202385 18.95801453 0.05202385 19.99914551 0.04133606 C23.5891185 0.14715956 25.44480208 0.74503495 28.40893555 2.81005859 C30.98405622 6.50013907 31.11293574 9.35043487 30.95703125 13.6875 C30.94995651 14.43509079 30.94288177 15.18268158 30.93559265 15.95292664 C30.90772645 18.32773277 30.84501132 20.70013226 30.78125 23.07421875 C30.75615668 24.68941893 30.73334531 26.30465629 30.71289062 27.91992188 C30.65792647 31.86810694 30.57171527 35.81450564 30.46875 39.76171875 C31.92897583 39.73029785 31.92897583 39.73029785 33.41870117 39.69824219 C37.04338776 39.62563689 40.66801055 39.5798454 44.29321289 39.54199219 C45.85972923 39.52192317 47.42617109 39.49466124 48.99243164 39.45996094 C51.24904794 39.41123121 53.50467083 39.38870405 55.76171875 39.37109375 C56.45774704 39.35044861 57.15377533 39.32980347 57.87089539 39.30853271 C61.24602253 39.30698842 63.4129032 39.73206899 66.40673828 41.3215332 C69.1164328 44.52818685 69.20897898 47.17007102 69.16796875 51.1953125 C69.17512405 51.91026382 69.18227936 52.62521515 69.18965149 53.36183167 C69.19741843 54.8705216 69.19243721 56.37932418 69.17553711 57.88793945 C69.15632832 60.18983378 69.19566815 62.48567012 69.24023438 64.78710938 C69.24052481 66.25651399 69.23738291 67.72592412 69.23046875 69.1953125 C69.25339241 70.22053261 69.25339241 70.22053261 69.27677917 71.26646423 C69.18144137 75.20145159 68.51066702 76.71379313 65.89526367 79.70410156 C61.84597449 82.13569467 59.57512827 82.34384632 54.8828125 82.25 C54.18102875 82.24292526 53.479245 82.23585052 52.75619507 82.2285614 C50.53425409 82.20076972 48.31491735 82.13807309 46.09375 82.07421875 C44.57946372 82.04911561 43.06513757 82.02630597 41.55078125 82.00585938 C37.8559374 81.95099721 34.16259825 81.86483683 30.46875 81.76171875 C30.5001709 83.22194458 30.5001709 83.22194458 30.53222656 84.71166992 C30.60483186 88.33635651 30.65062335 91.9609793 30.68847656 95.58618164 C30.70854558 97.15269798 30.73580751 98.71913984 30.77050781 100.28540039 C30.81923754 102.54201669 30.8417647 104.79763958 30.859375 107.0546875 C30.88002014 107.75071579 30.90066528 108.44674408 30.92193604 109.16386414 C30.92358032 112.7575381 30.54890358 114.63853156 28.56933594 117.6809082 C23.96608449 122.2408236 17.86870755 120.98493399 11.77514648 121.00195312 C9.67456089 121.01163436 7.57496425 121.04264559 5.47460938 121.07421875 C4.1328183 121.08075161 2.79102023 121.08600097 1.44921875 121.08984375 C0.23129639 121.09918945 -0.98662598 121.10853516 -2.24145508 121.11816406 C-5.84228804 120.72801815 -7.66912353 119.941596 -10.53125 117.76171875 C-12.95994909 114.11867011 -12.78800675 111.45449536 -12.7265625 107.25 C-12.7237326 106.52177536 -12.72090271 105.79355072 -12.71798706 105.04325867 C-12.70680257 102.72007738 -12.68170166 100.39728328 -12.65625 98.07421875 C-12.64621794 96.49805245 -12.63709248 94.9218801 -12.62890625 93.34570312 C-12.60686896 89.48422608 -12.57235141 85.62303804 -12.53125 81.76171875 C-13.94603638 81.79313965 -13.94603638 81.79313965 -15.3894043 81.82519531 C-18.90252524 81.89353303 -22.41493585 81.94359622 -25.9284668 81.98144531 C-27.4464841 82.00151078 -28.96442459 82.02877009 -30.48217773 82.06347656 C-32.66930122 82.11222268 -34.85539952 82.1347368 -37.04296875 82.15234375 C-38.35740967 82.17329102 -39.67185059 82.19423828 -41.02612305 82.21582031 C-45.07875786 81.69078718 -46.67787035 80.62341341 -49.53125 77.76171875 C-51.66864323 73.48693229 -50.75822829 67.81434656 -50.77148438 63.06811523 C-50.78116561 60.96752964 -50.81217684 58.867933 -50.84375 56.76757812 C-50.85028286 55.42578705 -50.85553222 54.08398898 -50.859375 52.7421875 C-50.8687207 51.52426514 -50.87806641 50.30634277 -50.88769531 49.05151367 C-50.4975494 45.45068071 -49.71112725 43.62384522 -47.53125 40.76171875 C-43.93680817 38.3654242 -41.38263348 38.50390544 -37.23828125 38.56640625 C-36.53225266 38.56923615 -35.82622406 38.57206604 -35.09880066 38.57498169 C-32.84694367 38.58616411 -30.59548648 38.61126455 -28.34375 38.63671875 C-26.81576096 38.64675108 -25.28776567 38.65587649 -23.75976562 38.6640625 C-20.01677337 38.68609703 -16.27407944 38.72061308 -12.53125 38.76171875 C-12.55743408 37.82376465 -12.58361816 36.88581055 -12.6105957 35.91943359 C-12.69611855 32.41927575 -12.75864092 28.92023733 -12.8059082 25.41943359 C-12.83096095 23.90818701 -12.86501377 22.39706051 -12.90844727 20.88623047 C-12.9695169 18.70640374 -12.99754916 16.52818613 -13.01953125 14.34765625 C-13.04571533 13.03845215 -13.07189941 11.72924805 -13.09887695 10.38037109 C-11.86923667 2.54134818 -7.51907571 -0.16889984 0 0 Z " fill="#0BAED0" transform="translate(476.53125,172.23828125)"/>
<path d="M0 0 C2.3981521 2.04720301 3.42203252 3.35262684 5 6 C5.61359375 7.01707031 6.2271875 8.03414063 6.859375 9.08203125 C12.84212179 19.55183814 12.84212179 19.55183814 12 25 C9.00153786 30.48314285 3.63074624 32.63007481 -1.75 35.3125 C-2.63816406 35.76689453 -3.52632813 36.22128906 -4.44140625 36.68945312 C-6.62253984 37.80347297 -8.80853024 38.90649352 -11 40 C-9.05611828 45.17696998 -6.51602329 50.0218875 -4.00976562 54.94140625 C-2.35680854 58.20996545 -0.76890933 61.47319275 0.6484375 64.8515625 C1.87881708 67.98862949 1.87881708 67.98862949 3.6875 70.5 C5.4859814 73.92567887 5.55435016 76.18884263 5 80 C1.46887786 83.327656 -2.57235935 85.57534648 -6.875 87.75 C-7.46152344 88.06582031 -8.04804688 88.38164063 -8.65234375 88.70703125 C-12.91540578 90.87135505 -16.25167233 91.47657634 -21 91 C-24.70821051 87.82153385 -25.91970665 83.75578227 -27.5859375 79.3125 C-30.86319207 71.63539538 -35.04209959 64.34360151 -39 57 C-43.48632249 57.59761519 -46.76791738 59.35019282 -50.6875 61.5625 C-56.79476861 65 -56.79476861 65 -59 65 C-57.20891568 68.75027841 -55.41703149 72.5001741 -53.625 76.25 C-53.11710937 77.31347656 -52.60921875 78.37695312 -52.0859375 79.47265625 C-51.59609375 80.49746094 -51.10625 81.52226563 -50.6015625 82.578125 C-50.15119629 83.52075195 -49.70083008 84.46337891 -49.23681641 85.43457031 C-48.46566785 87.0341023 -47.67653419 88.62523785 -46.8605957 90.20239258 C-45.20762517 93.65510804 -45.35645782 97.28470495 -46 101 C-49.11136508 105.30100467 -52.02840771 106.53776697 -57 108 C-58.3422454 108.69129673 -59.6752237 109.40078895 -61 110.125 C-64.54234265 111.89279767 -67.01564992 113.06249335 -71 112 C-76.00460594 105.87767136 -79.04301268 97.92620078 -82.33789062 90.80664062 C-82.75361328 89.94361328 -83.16933594 89.08058594 -83.59765625 88.19140625 C-83.96383057 87.40967041 -84.33000488 86.62793457 -84.70727539 85.82250977 C-85.86520673 83.84013074 -85.86520673 83.84013074 -88.03442383 83.18945312 C-90.54685597 82.94729099 -91.53403987 83.5696252 -93.625 84.9375 C-97 87 -97 87 -99 87 C-99.33 87.99 -99.66 88.98 -100 90 C-103.27909192 90.88808739 -105.75219125 91.08595463 -109 90 C-112.3452384 85.99950872 -114.60047427 81.63075892 -117 77 C-117.55558594 76.11570312 -118.11117188 75.23140625 -118.68359375 74.3203125 C-120.2527537 71.55449347 -120.73667345 69.1468377 -120.59228516 65.96289062 C-118.93841262 60.48179615 -111.01189567 57.36938329 -106.33984375 54.80859375 C-104.20880586 53.67907191 -102.07452784 52.5556476 -99.9375 51.4375 C-97.60311061 50.19854244 -95.26960341 48.95808302 -92.9375 47.71484375 C-92.35149521 47.40304169 -91.76549042 47.09123962 -91.16172791 46.76998901 C-85.53580637 43.76915273 -79.97940196 40.65262534 -74.4375 37.5 C-73.50671631 36.97075928 -72.57593262 36.44151855 -71.61694336 35.89624023 C-69.71832324 34.81642147 -67.81980494 33.73642368 -65.92138672 32.65625 C-60.79322224 29.74889016 -55.64585511 26.8758937 -50.5 24 C-40.26305417 18.27486067 -30.04424049 12.51823094 -19.8359375 6.7421875 C-19.00400879 6.27312988 -18.17208008 5.80407227 -17.31494141 5.32080078 C-15.8502761 4.48512906 -14.39306699 3.63612887 -12.94677734 2.76904297 C-8.04298732 -0.15915692 -5.60738551 -0.90441702 0 0 Z " fill="#055EBD" transform="translate(443,436)"/>
<path d="M0 0 C0.74121094 0.33902344 1.48242188 0.67804688 2.24609375 1.02734375 C13.58732591 6.55054347 21.4678231 16.48369816 25.8046875 28.16796875 C29.4951942 41.64084596 27.07425757 55.06838826 20.2734375 67.0390625 C15.62583777 73.98177321 10.08600495 78.65601361 3 83 C1.80697266 83.79277344 1.80697266 83.79277344 0.58984375 84.6015625 C-8.68478019 89.86355199 -21.14177311 89.82772193 -31.35546875 87.45214844 C-44.20758763 83.49983754 -53.12282831 75.12507397 -59.74609375 63.51953125 C-60.15988281 62.68808594 -60.57367188 61.85664063 -61 61 C-61.53882813 59.99066406 -62.07765625 58.98132813 -62.6328125 57.94140625 C-64.76235517 52.85778283 -64.47429862 47.55112363 -64.4375 42.125 C-64.45748047 41.08730469 -64.47746094 40.04960937 -64.49804688 38.98046875 C-64.49369786 32.08293213 -63.38001267 27.01467712 -60 21 C-59.27876953 19.71222656 -59.27876953 19.71222656 -58.54296875 18.3984375 C-52.71142207 9.69313151 -46.36125233 3.81185867 -37 -1 C-36.33742187 -1.34289062 -35.67484375 -1.68578125 -34.9921875 -2.0390625 C-24.34806081 -6.50542154 -9.95392516 -5.47375558 0 0 Z " fill="#064DAD" transform="translate(237,313)"/>
<path d="M0 0 C1.07880212 -0.00709439 2.15760424 -0.01418877 3.26909733 -0.02149814 C6.89061475 -0.03912589 10.51106576 -0.02094773 14.13256836 -0.00291443 C16.72615041 -0.00805137 19.31972898 -0.01533094 21.91329956 -0.02459717 C28.23039026 -0.04297973 34.54717173 -0.03445756 40.86425281 -0.01650894 C45.99807593 -0.00248524 51.13181508 0.00141037 56.26565552 -0.00195122 C56.99622982 -0.00242866 57.72680412 -0.0029061 58.47951704 -0.00339801 C59.96364874 -0.00442434 61.44778041 -0.0054797 62.93191206 -0.00656378 C76.05647657 -0.01513208 89.18089175 0.0015483 102.30541992 0.03126526 C115.04181186 0.06010302 127.77798867 0.06718641 140.5144043 0.05177307 C154.38234308 0.03501338 168.25017971 0.03097431 182.11812115 0.04848343 C183.59680365 0.05032783 185.07548617 0.05216255 186.5541687 0.0539875 C187.64548862 0.05535564 187.64548862 0.05535564 188.7588554 0.05675141 C193.88670928 0.06235827 199.01451332 0.05904825 204.1423645 0.05244255 C211.04365169 0.04390529 217.94462304 0.05686155 224.84585953 0.08429146 C227.38191938 0.09119071 229.91800816 0.09125689 232.45406723 0.08407593 C235.9096688 0.07541721 239.36430367 0.09127811 242.81982422 0.11352539 C243.82905976 0.10528462 244.83829531 0.09704386 245.87811375 0.08855337 C250.22982343 0.1404443 252.73345604 0.2228707 256.52809143 2.49653721 C258.87289196 5.15263431 259.11203672 6.55090827 259.09741211 10.06568909 C259.1219043 10.99252502 259.14639648 11.91936096 259.17163086 12.87428284 C258.29092508 16.05837297 256.94547912 17.53625431 254.3728143 19.56919825 C250.42480209 21.69916111 246.12223745 21.31563942 241.73753357 21.26983643 C240.66196058 21.27834194 239.58638759 21.28684746 238.47822148 21.29561073 C234.8736569 21.31789841 231.27012289 21.30443741 227.66552734 21.29103088 C225.08164734 21.2994428 222.49777347 21.30996734 219.91390991 21.32244873 C213.62438403 21.34852366 207.3351441 21.34745186 201.04558473 21.33641054 C195.93418708 21.32784989 190.82287212 21.32868463 185.71147346 21.33620644 C184.61997829 21.33778877 184.61997829 21.33778877 183.5064327 21.33940307 C182.02817954 21.341574 180.5499264 21.34376077 179.07167328 21.34596322 C165.21340361 21.36538867 151.35529438 21.35339872 137.49703784 21.33117727 C125.60565843 21.31292117 113.71458941 21.32383797 101.82324219 21.35548401 C88.01277977 21.39223526 74.20251121 21.40927295 60.39199978 21.39607173 C58.91951155 21.39473063 57.44702328 21.39342165 55.97453499 21.39214516 C55.25004747 21.39151449 54.52555996 21.39088383 53.77911828 21.39023405 C48.67325268 21.38720561 43.56753324 21.39847203 38.46169853 21.41539574 C31.59066091 21.43782742 24.72027386 21.42874704 17.84926987 21.39830208 C15.32449228 21.39195447 12.79966534 21.39588375 10.27492332 21.4107132 C6.83430889 21.42928776 3.39581413 21.41108536 -0.04469299 21.38336182 C-1.04935547 21.39742827 -2.05401795 21.41149472 -3.08912474 21.42598742 C-9.6700324 21.31875531 -9.6700324 21.31875531 -12.32534397 19.32575762 C-14.83544655 16.42750201 -16.2839824 13.9168921 -16.21508789 10.06568909 C-16.22797852 9.34252502 -16.24086914 8.61936096 -16.25415039 7.87428284 C-13.82527225 -0.34104027 -7.16032316 -0.08397211 0 0 Z " fill="#0B83CC" transform="translate(464.590087890625,335.37181091308594)"/>
<path d="M0 0 C0.92362713 -0.00623996 1.84725426 -0.01247993 2.79887009 -0.01890898 C5.89514408 -0.03486934 8.99063416 -0.0222226 12.08691406 -0.00964355 C14.30611633 -0.0150633 16.525315 -0.02218513 18.74450684 -0.03088379 C24.77336936 -0.04913739 30.80195843 -0.04204105 36.83082581 -0.02936745 C43.1359227 -0.01925041 49.44099595 -0.02862952 55.74609375 -0.03491211 C67.01353254 -0.04265878 78.28085847 -0.03021703 89.5482707 -0.00987476 C99.76303644 0.00799615 109.97762035 0.00489201 120.19238281 -0.0135498 C132.05627701 -0.03495896 143.92008314 -0.04292231 155.7840004 -0.03110075 C162.06352353 -0.02486003 168.34292141 -0.0240462 174.62243652 -0.0372467 C180.52566515 -0.04878905 186.42854991 -0.04080866 192.33174133 -0.01766968 C194.50014169 -0.012374 196.66857091 -0.01391097 198.83695984 -0.02272034 C201.79339189 -0.03362518 204.74871692 -0.01997298 207.70507812 0 C208.56645763 -0.00892289 209.42783714 -0.01784577 210.31531906 -0.02703905 C214.31832749 0.02554165 216.37443233 0.21491928 219.86175537 2.35218048 C223.34864215 6.12801533 222.94555003 9.57835341 222.85253906 14.50793457 C222.19253906 14.50793457 221.53253906 14.50793457 220.85253906 14.50793457 C220.19253906 15.82793457 219.53253906 17.14793457 218.85253906 18.50793457 C218.19253906 18.50793457 217.53253906 18.50793457 216.85253906 18.50793457 C216.85253906 19.16793457 216.85253906 19.82793457 216.85253906 20.50793457 C188.16370688 20.66762584 159.4749271 20.7915036 130.78573795 20.86539188 C127.39866181 20.87414681 124.01158655 20.88320707 120.62451172 20.89245605 C119.95020664 20.89429223 119.27590157 20.8961284 118.581163 20.89802022 C107.66311618 20.92847881 96.74532739 20.98367021 85.82743363 21.04800414 C74.62448569 21.11346715 63.42166665 21.15182247 52.2185179 21.16655403 C45.9258204 21.17568844 39.6337081 21.19718986 33.34119797 21.24804497 C27.41988419 21.29551298 21.49939735 21.31022428 15.57791138 21.29968834 C13.40343356 21.30161613 11.22892846 21.31556749 9.05461502 21.34237289 C6.08669133 21.37717122 3.12189517 21.36884477 0.15390015 21.34971619 C-1.13891575 21.38030102 -1.13891575 21.38030102 -2.45784914 21.41150373 C-5.97810934 21.35011303 -8.24037731 21.24160657 -11.03461146 18.98155987 C-13.3451357 16.38016862 -14.94854993 14.42807685 -15.69042969 10.99621582 C-15.573125 10.27820801 -15.45582031 9.5602002 -15.33496094 8.82043457 C-15.24601562 8.09469238 -15.15707031 7.3689502 -15.06542969 6.62121582 C-12.13150681 -0.13304918 -6.38444301 -0.06613538 0 0 Z " fill="#0B70CC" transform="translate(501.1474609375,467.4920654296875)"/>
<path d="M0 0 C0.95302671 -0.00438225 1.90605341 -0.00876451 2.88795972 -0.01327956 C6.10151691 -0.02670129 9.31504666 -0.03285397 12.52862549 -0.03897095 C14.82457606 -0.04686923 17.12052539 -0.055138 19.41647339 -0.06375122 C26.97370208 -0.09000197 34.5309364 -0.1052814 42.0881958 -0.11953735 C44.68647516 -0.12489568 47.28475447 -0.13027319 49.88303375 -0.13566971 C60.68839946 -0.15730245 71.49376282 -0.17619188 82.29914474 -0.1872921 C85.10382847 -0.19022184 87.90851216 -0.1931835 90.7131958 -0.19619751 C91.41029479 -0.19694356 92.10739378 -0.19768961 92.82561699 -0.19845827 C104.11853517 -0.21111224 115.41129593 -0.24433528 126.70414051 -0.28599934 C138.29590401 -0.32841596 149.88757856 -0.35157914 161.47941899 -0.35721266 C167.9888013 -0.36087176 174.49791679 -0.37295279 181.00722504 -0.4053154 C187.13038177 -0.43532127 193.2531092 -0.44173433 199.3763237 -0.42993164 C201.6249514 -0.42971028 203.87359859 -0.43806632 206.12215805 -0.45558548 C209.19019481 -0.47819009 212.25666341 -0.47002182 215.32470703 -0.45410156 C216.66216795 -0.47492469 216.66216795 -0.47492469 218.02664828 -0.49616849 C222.2993382 -0.44147108 225.07174257 -0.16248814 228.46818924 2.562994 C230.9163208 5.15390015 230.9163208 5.15390015 231.67803955 7.21640015 C231.51996554 11.34296391 231.23675592 12.76773475 228.4788208 16.09140015 C227.6331958 16.77202515 226.7875708 17.45265015 225.9163208 18.15390015 C225.5863208 18.48390015 225.2563208 18.81390015 224.9163208 19.15390015 C221.90177979 19.25858193 218.90993598 19.29721489 215.89474487 19.29434204 C214.45718607 19.29879872 214.45718607 19.29879872 212.99058568 19.30334544 C209.75309421 19.31207342 206.51563954 19.31354413 203.27813721 19.31503296 C200.96761495 19.31965822 198.65709346 19.32468248 196.34657288 19.33007812 C190.05117717 19.34323182 183.75579215 19.34965279 177.46038485 19.35408878 C173.53208426 19.35701457 169.60378663 19.3611184 165.67548752 19.36559296 C154.80667287 19.37770617 143.93786147 19.3880869 133.0690403 19.39146805 C132.37294146 19.39168761 131.67684262 19.39190718 130.95964988 19.3921334 C129.91295243 19.39246082 129.91295243 19.39246082 128.84510958 19.39279485 C127.43102113 19.39323832 126.01693269 19.39368488 124.60284424 19.39413452 C123.9014022 19.39435595 123.19996016 19.39457738 122.4772623 19.39480552 C111.1079362 19.39875466 99.73867415 19.41621107 88.3693728 19.43949404 C76.706465 19.46318618 65.04359254 19.47541074 53.38066041 19.47683597 C46.82839862 19.4778868 40.27622711 19.48385351 33.72398758 19.50165558 C27.56317334 19.5180678 21.40251791 19.52032522 15.24168968 19.51151657 C12.97568908 19.51074252 10.70968017 19.51513689 8.44370079 19.52497482 C5.35956289 19.53758351 2.27599693 19.53187812 -0.80813599 19.52139282 C-1.71308819 19.52944923 -2.6180404 19.53750563 -3.5504154 19.54580617 C-4.3743698 19.53921633 -5.19832421 19.53262648 -6.04724693 19.52583694 C-6.75943992 19.52643403 -7.47163291 19.52703112 -8.2054075 19.5276463 C-10.6541157 19.04039237 -11.56754595 18.10022353 -13.0836792 16.15390015 C-13.0836792 15.49390015 -13.0836792 14.83390015 -13.0836792 14.15390015 C-13.7436792 14.15390015 -14.4036792 14.15390015 -15.0836792 14.15390015 C-15.57397542 6.92203089 -15.57397542 6.92203089 -13.2086792 3.21640015 C-9.20940269 -0.66525058 -5.29294674 0.0029255 0 0 Z " fill="#0677CB" transform="translate(493.08367919921875,400.8460998535156)"/>
<path d="M0 0 C5.30600638 2.49039977 9.58748056 6.6723529 12 12 C12.7482558 17.21440762 12.88685765 21.3169125 10.39453125 26.046875 C7.69923761 29.37092392 4.77667698 31.51806313 1.1875 33.75 C-0.16169119 34.6181278 -1.51064284 35.48662797 -2.859375 36.35546875 C-3.89094727 37.01168213 -3.89094727 37.01168213 -4.94335938 37.68115234 C-8.18308009 39.75866556 -11.36932099 41.91446033 -14.5625 44.0625 C-19.9107527 47.63772463 -25.3027175 51.13828358 -30.72412109 54.60131836 C-35.08051197 57.39080787 -39.38995186 60.24582766 -43.6875 63.125 C-75.70306866 84.55312876 -75.70306866 84.55312876 -84 84 C-89.74162535 82.08612488 -93.94365818 78.16688158 -97 73 C-98.64643916 66.12694526 -96.55567299 59.92388063 -93 54 C-90.60171497 51.66683745 -87.93336925 50.02285005 -85.06640625 48.31640625 C-83.43835391 47.29019385 -81.81093806 46.26297114 -80.18408203 45.23486328 C-79.33388489 44.70773743 -78.48368774 44.18061157 -77.60772705 43.63751221 C-73.22464904 40.88517517 -68.94537421 37.97978645 -64.65234375 35.08984375 C-62.87486417 33.90222333 -61.09686533 32.71537971 -59.31835938 31.52929688 C-56.62449401 29.73134675 -53.93085693 27.93306067 -51.23803711 26.13354492 C-41.31581298 19.50343758 -31.38191356 12.89827813 -21.33030701 6.46531677 C-18.71633314 4.78756764 -16.16692586 3.12875158 -13.70581055 1.23046875 C-9.84708725 -1.55298129 -4.47565427 -0.70577625 0 0 Z " fill="#0BBBDA" transform="translate(252,120)"/>
<path d="M0 0 C1.03475464 -0.00087616 2.06950928 -0.00175232 3.13562012 -0.00265503 C6.54512851 0.00151466 9.95265305 0.04814075 13.36181641 0.09521484 C15.72977626 0.1064091 18.09775003 0.1149482 20.46572876 0.12094116 C26.69019109 0.14382093 32.91380982 0.20273868 39.13793945 0.26916504 C45.49239694 0.33060484 51.84699109 0.35795992 58.20166016 0.38818359 C70.66426984 0.45248123 83.12625415 0.55485186 95.58837891 0.68115234 C95.58837891 1.34115234 95.58837891 2.00115234 95.58837891 2.68115234 C96.20712891 2.96990234 96.82587891 3.25865234 97.46337891 3.55615234 C99.58837891 4.68115234 99.58837891 4.68115234 101.58837891 6.68115234 C102.05606255 11.63859895 101.73245146 14.75106165 98.58837891 18.68115234 C95.70045694 20.44470466 93.52326973 20.93581772 90.16152954 20.96203613 C89.28121567 20.97345642 88.40090179 20.98487671 87.49391174 20.99664307 C86.53589157 20.99887878 85.5778714 21.0011145 84.59082031 21.00341797 C83.57574905 21.01334778 82.5606778 21.02327759 81.5148468 21.0335083 C78.15651745 21.06272122 74.79837695 21.07634927 71.43994141 21.08740234 C69.10590611 21.0989066 66.77187088 21.11042206 64.43783569 21.12194824 C59.54367187 21.14295876 54.64957367 21.15465065 49.75537109 21.16162109 C43.4848071 21.17259694 37.21511032 21.22066786 30.9448185 21.277565 C26.12351953 21.31481394 21.3024297 21.32522863 16.48099899 21.32829285 C14.16930773 21.3343466 11.85762017 21.35040635 9.5460701 21.37666321 C6.31161724 21.41078462 3.07928648 21.40702707 -0.15527344 21.39404297 C-1.10924515 21.41247253 -2.06321686 21.4309021 -3.0460968 21.44989014 C-7.65812666 21.39190719 -10.55953799 21.11790335 -14.00576782 17.88659668 C-16.09854838 15.57146088 -16.89146121 13.79624242 -17.16162109 10.68115234 C-16.81163225 6.65955726 -15.24775128 4.62899947 -12.36039352 1.92206955 C-8.5404307 -0.51036305 -4.39660025 -0.09781487 0 0 Z " fill="#0E68CD" transform="translate(622.41162109375,574.31884765625)"/>
<path d="M0 0 C3.93485528 3.40668678 5.85528406 7.20669102 8.0625 11.8125 C8.40087891 12.49892578 8.73925781 13.18535156 9.08789062 13.89257812 C10.69551223 17.17934029 12.22327514 20.48216729 13.640625 23.85546875 C14.88003855 26.98819185 14.88003855 26.98819185 16.6875 29.5 C18.4859814 32.92567887 18.55435016 35.18884263 18 39 C14.46887786 42.327656 10.42764065 44.57534648 6.125 46.75 C5.53847656 47.06582031 4.95195312 47.38164063 4.34765625 47.70703125 C0.08459422 49.87135505 -3.25167233 50.47657634 -8 50 C-11.70970058 46.82025665 -12.92337618 42.7517011 -14.5859375 38.3046875 C-16.92575572 32.83649354 -19.8120596 27.65021313 -22.64697266 22.42529297 C-23.07800293 21.62494629 -23.5090332 20.82459961 -23.953125 20 C-24.34661133 19.278125 -24.74009766 18.55625 -25.14550781 17.8125 C-26 16 -26 16 -26 14 C-26.66 13.67 -27.32 13.34 -28 13 C-27.20980469 12.77441406 -26.41960937 12.54882812 -25.60546875 12.31640625 C-20.92761028 10.60845576 -16.68618177 8.30337071 -12.3125 5.9375 C-10.62218413 5.0279187 -8.93082132 4.12027956 -7.23828125 3.21484375 C-6.49618408 2.81386475 -5.75408691 2.41288574 -4.98950195 1.99975586 C-3 1 -3 1 0 0 Z " fill="#0552B0" transform="translate(430,477)"/>
<path d="M0 0 C3.84552668 2.8617873 6.47718125 5.88466876 8.015625 10.5 C8.7415723 17.50020611 8.70155711 23.08758679 4.4453125 28.8828125 C0.68955591 33.13112734 -3.31615163 36.20353074 -9.0078125 36.8359375 C-20.27563714 36.96726413 -20.27563714 36.96726413 -24.984375 32.5 C-29.5626227 27.79094523 -31.60309667 22.49575832 -32.421875 16.0625 C-31.73110202 10.43763432 -30.19593952 5.67077747 -26.078125 1.62890625 C-17.79546642 -4.8148785 -9.05128361 -5.57002068 0 0 Z " fill="#F7F8FB" transform="translate(229.984375,338.5)"/>
<path d="M0 0 C0.33 0.66 0.66 1.32 1 2 C1.66 2 2.32 2 3 2 C5.03018386 5.79714574 7.01836725 9.61482331 9 13.4375 C9.57234375 14.50677734 10.1446875 15.57605469 10.734375 16.67773438 C14.04898393 23.12938389 15.94767688 27.72475748 15 35 C11.88863492 39.30100467 8.97159229 40.53776697 4 42 C2.6577546 42.69129673 1.3247763 43.40078895 0 44.125 C-3.54234265 45.89279767 -6.01564992 47.06249335 -10 46 C-14.77969467 40.24592126 -17.66635303 32.71234026 -20.8125 26 C-21.31458984 24.93910156 -21.81667969 23.87820313 -22.33398438 22.78515625 C-23.56040683 20.19214878 -24.78228707 17.59710593 -26 15 C-23.27503628 13.18335752 -20.52751726 11.56799315 -17.67578125 9.9609375 C-16.13374023 9.09082031 -16.13374023 9.09082031 -14.56054688 8.203125 C-13.48869141 7.59984375 -12.41683594 6.9965625 -11.3125 6.375 C-10.22904297 5.76398438 -9.14558594 5.15296875 -8.02929688 4.5234375 C-5.35344676 3.0145881 -2.67699405 1.50681861 0 0 Z " fill="#0549A9" transform="translate(382,502)"/>
<path d="M0 0 C1.30723282 -0.00874829 1.30723282 -0.00874829 2.64087439 -0.01767331 C3.59893563 -0.01389399 4.55699687 -0.01011467 5.54409027 -0.00622082 C7.06996694 -0.01195914 7.06996694 -0.01195914 8.62666941 -0.01781338 C12.05146539 -0.02817128 15.47609459 -0.02414594 18.90090179 -0.02018261 C21.34964911 -0.0245275 23.79839506 -0.0297099 26.24713898 -0.03567028 C32.21749984 -0.04769898 38.1877946 -0.05020892 44.15816152 -0.04787002 C49.00932846 -0.04608875 53.86048173 -0.04783237 58.71164703 -0.05209446 C59.40143934 -0.05268965 60.09123165 -0.05328484 60.80192676 -0.05389806 C62.20311797 -0.05510978 63.60430917 -0.05632391 65.00550038 -0.05754044 C78.15212204 -0.06842226 91.29871806 -0.06625032 104.44534117 -0.06015559 C116.48059505 -0.05498459 128.51576803 -0.06624554 140.5510059 -0.08525381 C152.90102856 -0.10461016 165.25101291 -0.11289218 177.60105085 -0.10913056 C184.53780498 -0.10721532 191.47449022 -0.10973747 198.41123199 -0.1238451 C204.93156654 -0.1369714 211.45176539 -0.13452894 217.97210884 -0.12143421 C220.37033708 -0.11905757 222.76857657 -0.12184168 225.16679192 -0.13005733 C228.43036376 -0.1404346 231.69338089 -0.13249692 234.95693207 -0.11974621 C235.91499331 -0.12712049 236.87305455 -0.13449478 237.86014795 -0.14209253 C239.16738077 -0.13128271 239.16738077 -0.13128271 240.50102234 -0.12025452 C241.25465986 -0.12030953 242.00829738 -0.12036455 242.7847724 -0.12042123 C244.75051117 0.25447559 244.75051117 0.25447559 247.75051117 3.25447559 C122.51551117 2.75947559 122.51551117 2.75947559 -5.24948883 2.25447559 C-5.57948883 3.57447559 -5.90948883 4.89447559 -6.24948883 6.25447559 C-6.57948883 6.58447559 -6.90948883 6.91447559 -7.24948883 7.25447559 C-7.50047807 10.72656366 -7.43470979 14.21188179 -7.43698883 17.69197559 C-7.44923492 18.67230762 -7.46148102 19.65263966 -7.47409821 20.66267872 C-7.4760318 21.59918262 -7.47796539 22.53568653 -7.47995758 23.50056934 C-7.48406647 24.36351612 -7.48817535 25.2264629 -7.49240875 26.11555958 C-7.44998683 28.46917486 -7.44998683 28.46917486 -5.24948883 30.25447559 C-5.57948883 31.24447559 -5.90948883 32.23447559 -6.24948883 33.25447559 C-8.22214508 31.93806934 -8.22214508 31.93806934 -10.24948883 29.25447559 C-10.84677288 25.60526271 -10.76120279 22.0061274 -10.68698883 18.31697559 C-10.69407867 17.32762012 -10.70116852 16.33826466 -10.70847321 15.31892872 C-10.6286661 6.19022323 -10.6286661 6.19022323 -7.24948883 2.25447559 C-4.15079321 0.18867851 -3.50473383 0.00403088 0 0 Z " fill="#4270C1" transform="translate(280.2494888305664,593.7455244064331)"/>
<path d="M0 0 C15.167064 0.58604581 30.32287108 0.65156882 45.5 0.625 C46.6144046 0.6231369 47.7288092 0.6212738 48.87698364 0.61935425 C55.23052145 0.60722414 61.58400187 0.58786872 67.9375 0.5625 C67.9375 0.2325 67.9375 -0.0975 67.9375 -0.4375 C76.51777523 -0.46075306 85.09803711 -0.47848083 93.67833614 -0.48931217 C97.66325436 -0.49451277 101.6481509 -0.5015587 105.63305664 -0.51293945 C109.48451002 -0.52386923 113.33594265 -0.52979806 117.18741035 -0.53237724 C118.65087778 -0.53421341 120.11434416 -0.53779871 121.57780266 -0.54323006 C137.08312005 -0.59844429 137.08312005 -0.59844429 143.9375 0.5625 C144.9275 1.5525 144.9275 1.5525 145.9375 2.5625 C89.8375 2.5625 33.7375 2.5625 -24.0625 2.5625 C-24.0625 1.9025 -24.0625 1.2425 -24.0625 0.5625 C-15.97701655 -0.55559353 -8.13745315 -0.35103531 0 0 Z " fill="#083795" transform="translate(162.0625,804.4375)"/>
<path d="M0 0 C0.66 0.33 1.32 0.66 2 1 C1.67533752 2.08080338 1.35067505 3.16160675 1.01617432 4.27516174 C-0.33255778 9.70900964 -0.28006091 15.02529845 -0.25878906 20.59741211 C-0.2622937 21.73504501 -0.26579834 22.87267792 -0.26940918 24.04478455 C-0.27818013 27.78903382 -0.27239321 31.53309269 -0.265625 35.27734375 C-0.26697307 37.88993872 -0.26891479 40.50253345 -0.27142334 43.11512756 C-0.27505352 48.58482915 -0.2702894 54.05447658 -0.26074219 59.52416992 C-0.24986489 65.82827917 -0.25338173 72.13225896 -0.264395 78.43636507 C-0.27460094 84.52430608 -0.27347422 90.61219016 -0.26763153 96.70013618 C-0.26630067 99.28003521 -0.26792293 101.85993755 -0.27259064 104.43983269 C-0.27769038 108.05104089 -0.26989673 111.66200337 -0.25878906 115.27319336 C-0.26283752 116.33165466 -0.26688599 117.39011597 -0.27105713 118.48065186 C-0.22339408 126.87866818 0.47013046 134.37781006 5.125 141.5625 C5.66382813 142.40941406 6.20265625 143.25632813 6.7578125 144.12890625 C7.16773438 144.74636719 7.57765625 145.36382812 8 146 C7.34 146.33 6.68 146.66 6 147 C-5.32226086 135.09405863 -4.20694914 121.50930069 -3.91254544 105.93549013 C-3.8556951 102.41364603 -3.85095139 98.89170849 -3.84031677 95.36947632 C-3.81251316 88.72171559 -3.73889583 82.07531132 -3.64817137 75.42814386 C-3.54703798 67.85137264 -3.49795733 60.27453136 -3.45291245 52.69725156 C-3.3592248 37.13071963 -3.20126249 21.56553576 -3 6 C-2.34 6 -1.68 6 -1 6 C-0.67 4.02 -0.34 2.04 0 0 Z " fill="#4791D7" transform="translate(356,108)"/>
<path d="M0 0 C0.66 0.33 1.32 0.66 2 1 C-1.31115749 4.3993244 -4.58462909 7.74202175 -8.3125 10.6875 C-11.30072469 12.9576259 -11.30072469 12.9576259 -13 17 C74.78 17 162.56 17 253 17 C253 17.33 253 17.66 253 18 C163.57 18 74.14 18 -18 18 C-18 16 -18 16 -16.6015625 14.58984375 C-15.94929688 14.04457031 -15.29703125 13.49929688 -14.625 12.9375 C-11.20148675 10.02935433 -7.83383262 7.07339727 -4.5 4.0625 C-3.6440625 3.29035156 -2.788125 2.51820313 -1.90625 1.72265625 C-0.96265625 0.86994141 -0.96265625 0.86994141 0 0 Z " fill="#0F47C8" transform="translate(505,664)"/>
<path d="M0 0 C0.96444778 -0.00583219 1.92889556 -0.01166439 2.92256904 -0.01767331 C4.50775915 -0.01200433 4.50775915 -0.01200433 6.1249733 -0.00622082 C7.24980692 -0.01004636 8.37464055 -0.01387191 9.53356004 -0.01781338 C13.31670267 -0.02816267 17.09969407 -0.02414749 20.88284683 -0.02018261 C23.58963842 -0.02343358 26.29642151 -0.02964596 29.00320816 -0.03567028 C35.60141853 -0.04843049 42.19958823 -0.05020924 48.79780886 -0.04787002 C54.16187571 -0.04608775 59.5259302 -0.04783454 64.88999557 -0.05209446 C65.65314353 -0.05268965 66.41629149 -0.05328484 67.20256515 -0.05389806 C68.75288516 -0.05510981 70.30320518 -0.05632394 71.85352519 -0.05754044 C86.39902918 -0.06842159 100.94451 -0.06625108 115.4900153 -0.06015559 C128.79249718 -0.05498897 142.09490578 -0.06623411 155.39737317 -0.08525381 C169.05713527 -0.10463452 182.71686271 -0.11288761 196.37663865 -0.10913056 C204.04515254 -0.10721848 211.7136041 -0.10970653 219.38210678 -0.1238451 C225.91232596 -0.13576303 232.44244447 -0.13715939 238.97266504 -0.12505493 C242.30332983 -0.1191683 245.63365972 -0.11968961 248.9643364 -0.13005733 C252.5785998 -0.14049649 256.19236839 -0.13244607 259.80661392 -0.11974621 C260.85448444 -0.12712049 261.90235496 -0.13449478 262.98197913 -0.14209253 C269.0953256 -0.09690117 273.63053273 0.74339426 279.21976089 3.25447559 C277.14422441 3.80795199 275.37610126 4.25447559 273.21976089 4.25447559 C273.21976089 3.59447559 273.21976089 2.93447559 273.21976089 2.25447559 C180.15976089 2.25447559 87.09976089 2.25447559 -8.78023911 2.25447559 C-5.04532056 0.38701632 -3.91098125 0.00407168 0 0 Z " fill="#46B4DB" transform="translate(389.7802391052246,80.7455244064331)"/>
<path d="M0 0 C41.58 0 83.16 0 126 0 C124.35 1.32 122.7 2.64 121 4 C120.505 2.515 120.505 2.515 120 1 C81.72 1.33 43.44 1.66 4 2 C3.00489273 5.98042908 2.89967886 9.1653166 2.9375 13.25 C2.94652344 14.51328125 2.95554687 15.7765625 2.96484375 17.078125 C2.97644531 18.04234375 2.98804688 19.0065625 3 20 C2.67 20 2.34 20 2 20 C1.34 13.4 0.68 6.8 0 0 Z " fill="#2044A5" transform="translate(331,648)"/>
<path d="M0 0 C1.03475464 -0.00087616 2.06950928 -0.00175232 3.13562012 -0.00265503 C6.54512851 0.00151466 9.95265305 0.04814075 13.36181641 0.09521484 C15.72977626 0.1064091 18.09775003 0.1149482 20.46572876 0.12094116 C26.69019109 0.14382093 32.91380982 0.20273868 39.13793945 0.26916504 C45.49239694 0.33060484 51.84699109 0.35795992 58.20166016 0.38818359 C70.66426984 0.45248123 83.12625415 0.55485186 95.58837891 0.68115234 C95.58837891 1.01115234 95.58837891 1.34115234 95.58837891 1.68115234 C94.28181335 1.68257736 92.9752478 1.68400238 91.62908936 1.68547058 C79.32746645 1.70212615 67.02617496 1.74485589 54.72472763 1.81324291 C48.40009552 1.84756173 42.07570621 1.87263055 35.75097656 1.87670898 C29.64941087 1.88098135 23.54839339 1.90935654 17.4469986 1.95458412 C15.11698853 1.96759303 12.78691297 1.97185488 10.45687103 1.96730614 C7.19769285 1.96242448 3.94013198 1.98838619 0.68115234 2.02172852 C-0.77001732 2.00879005 -0.77001732 2.00879005 -2.25050354 1.99559021 C-7.70381627 1.98943524 -7.70381627 1.98943524 -11.91741943 5.22236633 C-12.41050598 6.03376572 -12.90359253 6.8451651 -13.41162109 7.68115234 C-14.07162109 7.68115234 -14.73162109 7.68115234 -15.41162109 7.68115234 C-15.41162109 9.99115234 -15.41162109 12.30115234 -15.41162109 14.68115234 C-15.74162109 14.68115234 -16.07162109 14.68115234 -16.41162109 14.68115234 C-17.14105529 7.62995514 -17.14105529 7.62995514 -14.02572632 3.57772827 C-9.82088467 -0.46898902 -5.57941963 -0.12413005 0 0 Z " fill="#5591DB" transform="translate(622.41162109375,574.31884765625)"/>
<path d="M0 0 C0.80060349 0.00007553 1.60120697 0.00015106 2.42607117 0.00022888 C3.71527214 0.00797081 3.71527214 0.00797081 5.03051758 0.01586914 C5.91411453 0.01728409 6.79771149 0.01869904 7.70808411 0.02015686 C10.53044011 0.0257547 13.3527168 0.03830678 16.17504883 0.05102539 C18.08845914 0.05604067 20.0018707 0.06060353 21.9152832 0.06469727 C26.60606897 0.07572342 31.29679545 0.09298656 35.98754883 0.11352539 C35.98754883 0.77352539 35.98754883 1.43352539 35.98754883 2.11352539 C37.63754883 2.11352539 39.28754883 2.11352539 40.98754883 2.11352539 C40.98754883 2.44352539 40.98754883 2.77352539 40.98754883 3.11352539 C25.14754883 3.11352539 9.30754883 3.11352539 -7.01245117 3.11352539 C-7.01245117 2.45352539 -7.01245117 1.79352539 -7.01245117 1.11352539 C-4.30620747 0.21144416 -2.77394132 -0.0087506 0 0 Z " fill="#083D9C" transform="translate(351.012451171875,803.886474609375)"/>
<path d="M0 0 C9.90134192 -0.06966027 19.80262507 -0.12289249 29.7041626 -0.15543652 C34.30237515 -0.17105987 38.90041943 -0.19223702 43.49853516 -0.22631836 C47.94002933 -0.25903098 52.38136213 -0.27687804 56.82296753 -0.28463173 C58.513362 -0.29015394 60.20374813 -0.30093734 61.89407349 -0.31719017 C64.27071889 -0.33912318 66.64670639 -0.34196039 69.0234375 -0.34057617 C69.71468216 -0.351362 70.40592682 -0.36214783 71.11811829 -0.3732605 C76.37472664 -0.34035924 80.22812598 0.98477575 85 3 C82.92446352 3.5534764 81.15634036 4 79 4 C79 3.34 79 2.68 79 2 C52.93 1.67 26.86 1.34 0 1 C0 0.67 0 0.34 0 0 Z " fill="#48CED6" transform="translate(584,81)"/>
<path d="M0 0 C1.12075928 0.00700928 1.12075928 0.00700928 2.26416016 0.01416016 C3.40425537 0.01923584 3.40425537 0.01923584 4.56738281 0.02441406 C24.16820167 0.20018783 24.16820167 0.20018783 28.57666016 3.13916016 C10.75666016 3.13916016 -7.06333984 3.13916016 -25.42333984 3.13916016 C-25.42333984 2.80916016 -25.42333984 2.47916016 -25.42333984 2.13916016 C-21.07882006 1.29530806 -17.03192003 1.05831755 -12.61083984 1.13916016 C-10.54867683 1.1764422 -8.48529974 1.18635809 -6.42333984 1.13916016 C-4.66134968 -0.62283 -2.34562958 0.00709309 0 0 Z " fill="#09409E" transform="translate(420.42333984375,803.86083984375)"/>
<path d="M0 0 C0.66 0.33 1.32 0.66 2 1 C1.67257812 2.09779785 1.34515625 3.1955957 1.0078125 4.32666016 C-0.27835848 9.49700511 -0.2167602 14.47333939 -0.125 19.7734375 C-0.11742676 20.77839264 -0.10985352 21.78334778 -0.10205078 22.8187561 C-0.07776424 26.00435148 -0.04047436 29.18957175 0 32.375 C0.05304109 36.59113507 0.09304353 40.80709608 0.125 45.0234375 C0.14159668 45.99421234 0.15819336 46.96498718 0.17529297 47.96517944 C0.18189941 48.86016144 0.18850586 49.75514343 0.1953125 50.67724609 C0.20578613 51.46586029 0.21625977 52.25447449 0.22705078 53.06698608 C0 55 0 55 -2 57 C-2.05078155 49.84671058 -2.08576793 42.69346781 -2.10986328 35.54003906 C-2.11991013 33.1074042 -2.13354994 30.67478138 -2.15087891 28.2421875 C-2.17518467 24.74215723 -2.18649644 21.24228688 -2.1953125 17.7421875 C-2.20563507 16.65759247 -2.21595764 15.57299744 -2.22659302 14.45553589 C-2.22736486 9.24078401 -2.12305726 4.87054313 0 0 Z " fill="#0674CC" transform="translate(356,108)"/>
<path d="M0 0 C0.66 0.33 1.32 0.66 2 1 C0.5484451 2.67257355 -0.91144409 4.33791758 -2.375 6 C-3.18710938 6.928125 -3.99921875 7.85625 -4.8359375 8.8125 C-5.55007812 9.534375 -6.26421875 10.25625 -7 11 C-7.66 11 -8.32 11 -9 11 C-9.103125 11.639375 -9.20625 12.27875 -9.3125 12.9375 C-9.89103932 15.51462968 -10.63822192 17.72857153 -11.5625 20.1875 C-13.28891989 25.16562336 -13.29405797 29.78319376 -13 35 C-13.66 35 -14.32 35 -15 35 C-17.26455264 28.20634207 -16.23057506 22.00717468 -13.4765625 15.59765625 C-10.73135989 10.76813314 -6.89998221 6.91434679 -3 3 C-2.12021484 2.11634766 -2.12021484 2.11634766 -1.22265625 1.21484375 C-0.81917969 0.81394531 -0.41570312 0.41304687 0 0 Z " fill="#244BA3" transform="translate(142,758)"/>
<path d="M0 0 C1.52228126 3.04456251 0.58508621 5.47260416 0.0703125 8.8125 C-1.33439394 18.87270885 -1.22205011 28.8628413 -1.125 39 C-1.11493715 40.85416176 -1.10581721 42.70832889 -1.09765625 44.5625 C-1.07593439 49.04180273 -1.0415922 53.52083953 -1 58 C-1.66 58 -2.32 58 -3 58 C-3.05096287 51.32889084 -3.08584348 44.65783242 -3.10986328 37.98657227 C-3.11988328 35.71995162 -3.13350297 33.45334377 -3.15087891 31.18676758 C-3.17530362 27.9174482 -3.18652343 24.64830064 -3.1953125 21.37890625 C-3.20563507 20.37541641 -3.21595764 19.37192657 -3.22659302 18.33802795 C-3.22755083 12.24910611 -2.60462966 6.88401508 -1 1 C-0.67 0.67 -0.34 0.34 0 0 Z " fill="#5D91D3" transform="translate(135,489)"/>
<path d="M0 0 C-0.13277344 0.58523438 -0.26554687 1.17046875 -0.40234375 1.7734375 C-2.25837333 10.79617983 -2.61633197 19.82225696 -3 29 C-3.33 29 -3.66 29 -4 29 C-4.33 21.41 -4.66 13.82 -5 6 C-7.31 7.98 -9.62 9.96 -12 12 C-13.32103998 13.0161846 -14.64744276 14.02615879 -16 15 C-16.66 14.67 -17.32 14.34 -18 14 C-16.08539961 12.22688737 -14.16842507 10.45646638 -12.25 8.6875 C-11.44175781 7.93823242 -11.44175781 7.93823242 -10.6171875 7.17382812 C-2.82574503 0 -2.82574503 0 0 0 Z " fill="#619DDB" transform="translate(158,335)"/>
<path d="M0 0 C1.05904289 0.00424484 1.05904289 0.00424484 2.13948059 0.00857544 C4.39133758 0.01975786 6.64279477 0.0448583 8.89453125 0.0703125 C10.42252029 0.08034483 11.95051558 0.08947024 13.47851562 0.09765625 C17.22150788 0.11969078 20.96420181 0.15420683 24.70703125 0.1953125 C24.70703125 0.5253125 24.70703125 0.8553125 24.70703125 1.1953125 C20.89867173 2.07525096 17.3226103 2.34309435 13.41796875 2.40625 C12.22945313 2.43460938 11.0409375 2.46296875 9.81640625 2.4921875 C7.31916448 2.54443105 4.82174248 2.5886535 2.32421875 2.625 C0.5453125 2.67140625 0.5453125 2.67140625 -1.26953125 2.71875 C-2.8949585 2.748479 -2.8949585 2.748479 -4.55322266 2.77880859 C-7.62408408 3.24564958 -8.3407325 3.89645315 -10.29296875 6.1953125 C-10.95296875 6.1953125 -11.61296875 6.1953125 -12.29296875 6.1953125 C-9.67575371 0.1555855 -6.05965922 -0.09138547 0 0 Z " fill="#41B8DA" transform="translate(439.29296875,210.8046875)"/>
<path d="M0 0 C3.6607519 1.22025063 3.92339441 2.126491 5.6875 5.4375 C6.34298828 6.64212891 6.34298828 6.64212891 7.01171875 7.87109375 C8 10 8 10 8 12 C8.66 12.33 9.32 12.66 10 13 C11.2890625 14.99609375 11.2890625 14.99609375 12.625 17.4375 C13.07101562 18.24058594 13.51703125 19.04367187 13.9765625 19.87109375 C15 22 15 22 15 24 C15.66 24.33 16.32 24.66 17 25 C17.625 27.0625 17.625 27.0625 18 29 C17.34 29 16.68 29 16 29 C14.68841306 27.1075836 13.47465931 25.14715757 12.3046875 23.1640625 C11.95238068 22.56951263 11.60007385 21.97496277 11.23709106 21.36239624 C10.49225553 20.1017512 9.75105268 18.83895394 9.01318359 17.57421875 C7.88097253 15.63522837 6.73642778 13.70395587 5.58984375 11.7734375 C0 2.28494526 0 2.28494526 0 0 Z " fill="#1B55B7" transform="translate(285,409)"/>
<path d="M0 0 C-1.39347376 3.15204981 -3.02485079 5.26171773 -5.4765625 7.671875 C-6.48203125 8.66767578 -6.48203125 8.66767578 -7.5078125 9.68359375 C-8.20648438 10.36550781 -8.90515625 11.04742187 -9.625 11.75 C-10.33140625 12.44738281 -11.0378125 13.14476562 -11.765625 13.86328125 C-13.50598703 15.58012488 -15.25084981 17.29211832 -17 19 C-17.66 18.67 -18.32 18.34 -19 18 C-17.10548397 15.93627679 -15.20943437 13.87399843 -13.3125 11.8125 C-12.78205078 11.23435547 -12.25160156 10.65621094 -11.70507812 10.06054688 C-10.14464588 8.36608977 -8.57567616 6.68028536 -7 5 C-6.52481934 4.49130371 -6.04963867 3.98260742 -5.56005859 3.45849609 C-2.23819444 0 -2.23819444 0 0 0 Z " fill="#CBE0F3" transform="translate(182,414)"/>
<path d="M0 0 C3.21698769 5.79057785 3.13279943 11.36117538 3.0625 17.8125 C3.05798828 18.60076172 3.05347656 19.38902344 3.04882812 20.20117188 C3.03711312 22.13414761 3.01917998 24.06708393 3 26 C2.34 26.33 1.68 26.66 1 27 C0.3668316 17.98865693 -0.1723784 9.04028922 0 0 Z " fill="#195DB8" transform="translate(281,337)"/>
<path d="M0 0 C0.33 0 0.66 0 1 0 C0.62026951 7.59460984 -1.2520401 14.32733151 -5 21 C-5.99 21.33 -6.98 21.66 -8 22 C-7.71125 21.14792969 -7.4225 20.29585938 -7.125 19.41796875 C-5.65392833 14.94856699 -4.33238284 10.43818718 -3 5.92578125 C-2 3 -2 3 0 0 Z " fill="#1F5BB9" transform="translate(282,365)"/>
<path d="M0 0 C0.68449219 0.29648437 1.36898437 0.59296875 2.07421875 0.8984375 C5.28952332 2.10900611 8.45971785 2.8799373 11.8125 3.625 C12.97394531 3.88539063 14.13539063 4.14578125 15.33203125 4.4140625 C16.21246094 4.60742188 17.09289062 4.80078125 18 5 C18 5.66 18 6.32 18 7 C11.97099313 6.48758893 5.97995357 5.930215 0 5 C0 3.35 0 1.7 0 0 Z " fill="#3D72C0" transform="translate(220,286)"/>
<path d="M0 0 C6.93 0 13.86 0 21 0 C21 0.33 21 0.66 21 1 C12.585 1.495 12.585 1.495 4 2 C3.00489273 5.98042908 2.89967886 9.1653166 2.9375 13.25 C2.94652344 14.51328125 2.95554687 15.7765625 2.96484375 17.078125 C2.97644531 18.04234375 2.98804688 19.0065625 3 20 C2.67 20 2.34 20 2 20 C1.34 13.4 0.68 6.8 0 0 Z " fill="#3959AC" transform="translate(331,648)"/>
<path d="M0 0 C2.02574398 4.05148796 2.36120515 6.50486637 2.65625 10.87890625 C2.89747961 13.29520543 2.89747961 13.29520543 5 16 C5.99 16.33 6.98 16.66 8 17 C8 17.33 8 17.66 8 18 C5.36 18 2.72 18 0 18 C0 12.06 0 6.12 0 0 Z " fill="#0D3694" transform="translate(126,789)"/>
<path d="M0 0 C1.98 0.99 1.98 0.99 4 2 C4 2.66 4 3.32 4 4 C4.66 4 5.32 4 6 4 C6 4.66 6 5.32 6 6 C6.59296875 6.25523437 7.1859375 6.51046875 7.796875 6.7734375 C10.21224538 8.11816498 11.51211706 9.49214367 13.25 11.625 C13.77078125 12.25664063 14.2915625 12.88828125 14.828125 13.5390625 C15.40820312 14.26222656 15.40820312 14.26222656 16 15 C13 15 13 15 11.46606445 13.83837891 C10.937146 13.30647949 10.40822754 12.77458008 9.86328125 12.2265625 C9.28642578 11.6490625 8.70957031 11.0715625 8.11523438 10.4765625 C7.52033203 9.86554687 6.92542969 9.25453125 6.3125 8.625 C5.70599609 8.02171875 5.09949219 7.4184375 4.47460938 6.796875 C0 2.26689925 0 2.26689925 0 0 Z " fill="#184FAA" transform="translate(135,691)"/>
<path d="M0 0 C0.66 0.33 1.32 0.66 2 1 C0.5484451 2.67257355 -0.91144409 4.33791758 -2.375 6 C-3.18710938 6.928125 -3.99921875 7.85625 -4.8359375 8.8125 C-5.55007812 9.534375 -6.26421875 10.25625 -7 11 C-7.66 11 -8.32 11 -9 11 C-9.33 12.65 -9.66 14.3 -10 16 C-10.99 16.33 -11.98 16.66 -13 17 C-11.05672098 10.09056348 -5.04378761 4.8420361 0 0 Z " fill="#2D52A8" transform="translate(142,758)"/>
<path d="M0 0 C0.66 0.33 1.32 0.66 2 1 C-1.31115749 4.3993244 -4.58462909 7.74202175 -8.3125 10.6875 C-10.7411467 12.77726577 -11.90638777 14.04724697 -13 17 C-14.65 17 -16.3 17 -18 17 C-14.16713416 13.10938854 -10.21140271 9.37944195 -6.1875 5.6875 C-5.2912793 4.86282227 -5.2912793 4.86282227 -4.37695312 4.02148438 C-2.91885078 2.68003022 -1.4595496 1.33987935 0 0 Z " fill="#4E61D0" transform="translate(505,664)"/>
<path d="M0 0 C5.94 0.66 11.88 1.32 18 2 C18 2.33 18 2.66 18 3 C10.08 3 2.16 3 -6 3 C-6 2.67 -6 2.34 -6 2 C-4.02 2 -2.04 2 0 2 C0 1.34 0 0.68 0 0 Z " fill="#093A9A" transform="translate(324,804)"/>
<path d="M0 0 C0.81533203 -0.01224609 1.63066406 -0.02449219 2.47070312 -0.03710938 C3.64729492 -0.04000977 3.64729492 -0.04000977 4.84765625 -0.04296875 C5.56058838 -0.04707764 6.27352051 -0.05118652 7.00805664 -0.05541992 C8.9375 0.1875 8.9375 0.1875 11.9375 2.1875 C10.72191406 2.17589844 9.50632813 2.16429687 8.25390625 2.15234375 C6.66927236 2.14296722 5.08463682 2.13386687 3.5 2.125 C2.69755859 2.11662109 1.89511719 2.10824219 1.06835938 2.09960938 C-0.97545221 2.0909857 -3.01933902 2.1352185 -5.0625 2.1875 C-5.3925 2.5175 -5.7225 2.8475 -6.0625 3.1875 C-8.73308851 3.32865161 -11.38682238 3.22997107 -14.0625 3.1875 C-13.0625 1.1875 -13.0625 1.1875 -11.26391602 0.57299805 C-7.51832273 -0.08290656 -3.79338259 0.00301301 0 0 Z " fill="#6188CC" transform="translate(218.0625,308.8125)"/>
<path d="M0 0 C0.103125 0.53625 0.20625 1.0725 0.3125 1.625 C1.18668189 4.64490109 2.55047968 7.20833124 4 10 C4.73127028 11.45727963 5.46039677 12.91563677 6.1875 14.375 C6.53167969 15.06335938 6.87585938 15.75171875 7.23046875 16.4609375 C7.48441406 16.96882813 7.73835938 17.47671875 8 18 C7.34 18 6.68 18 6 18 C4.51925046 15.94241228 3.18523151 13.91211348 1.875 11.75 C1.31619141 10.87021484 1.31619141 10.87021484 0.74609375 9.97265625 C-1.31481056 6.61330674 -2 5.04528996 -2 1 C-1.34 0.67 -0.68 0.34 0 0 Z " fill="#1672CD" transform="translate(356,237)"/>
<path d="M0 0 C0 0.66 0 1.32 0 2 C-0.99 2 -1.98 2 -3 2 C-3.2475 2.61875 -3.495 3.2375 -3.75 3.875 C-5.20628639 6.35068687 -6.37812506 6.95125002 -9 8 C-9 9.98 -9 11.96 -9 14 C-9.33 14 -9.66 14 -10 14 C-10.70088264 8.91860085 -10.70088264 8.91860085 -10 6 C-7.38574939 3.14700504 -4.02466902 0 0 0 Z " fill="#3E6DBE" transform="translate(333,494)"/>
<path d="M0 0 C1.7074998 1.28062485 3.37373596 2.61767557 5 4 C5 4.66 5 5.32 5 6 C7.97 5.34 10.94 4.68 14 4 C12.4375 6.0625 12.4375 6.0625 10 8 C6.10163581 8 3.91102934 7.88164129 1.0625 5.125 C0 3 0 3 0 0 Z " fill="#1E53B5" transform="translate(320,467)"/>
<path d="M0 0 C0.33 0.99 0.66 1.98 1 3 C-0.4515549 4.67257355 -1.91144409 6.33791758 -3.375 8 C-4.18710938 8.928125 -4.99921875 9.85625 -5.8359375 10.8125 C-6.55007812 11.534375 -7.26421875 12.25625 -8 13 C-8.66 13 -9.32 13 -10 13 C-10 13.66 -10 14.32 -10 15 C-10.66 14.67 -11.32 14.34 -12 14 C-11.55269531 13.49210937 -11.10539062 12.98421875 -10.64453125 12.4609375 C-7.03713058 8.35357725 -3.47885075 4.21678879 0 0 Z " fill="#377DCD" transform="translate(132,357)"/>
<path d="M0 0 C0.83265381 0.00523682 1.66530762 0.01047363 2.52319336 0.01586914 C3.42231445 0.0190918 4.32143555 0.02231445 5.24780273 0.02563477 C6.66609375 0.03820312 6.66609375 0.03820312 8.11303711 0.05102539 C9.06243164 0.05553711 10.01182617 0.06004883 10.98999023 0.06469727 C13.34356776 0.07652429 15.69702188 0.09300514 18.05053711 0.11352539 C18.05053711 0.44352539 18.05053711 0.77352539 18.05053711 1.11352539 C11.78053711 1.11352539 5.51053711 1.11352539 -0.94946289 1.11352539 C-1.27946289 2.43352539 -1.60946289 3.75352539 -1.94946289 5.11352539 C-2.93946289 5.11352539 -3.92946289 5.11352539 -4.94946289 5.11352539 C-2.54694377 0.14831921 -2.54694377 0.14831921 0 0 Z " fill="#214EB0" transform="translate(275.949462890625,594.886474609375)"/>
<path d="M0 0 C0.33 0 0.66 0 1 0 C2.27222389 6.9265523 1.92905033 12.55608928 -1 19 C-1.33 19 -1.66 19 -2 19 C-2.24794402 12.4294834 -1.32388229 6.43028541 0 0 Z " fill="#3571C5" transform="translate(70,479)"/>
<path d="M0 0 C1.485 0.99 1.485 0.99 3 2 C3 2.66 3 3.32 3 4 C3.61875 4.12375 4.2375 4.2475 4.875 4.375 C7 5 7 5 9 7 C8.67 7.99 8.34 8.98 8 10 C5.03 7.69 2.06 5.38 -1 3 C-0.67 2.01 -0.34 1.02 0 0 Z " fill="#295BB0" transform="translate(160,713)"/>
<path d="M0 0 C0.33 0 0.66 0 1 0 C1 4.29 1 8.58 1 13 C-2.10551666 9.89448334 -2.81323934 8.10801767 -4 4 C-3.01 4.495 -3.01 4.495 -2 5 C-2 5.66 -2 6.32 -2 7 C-1.34 7 -0.68 7 0 7 C0 4.69 0 2.38 0 0 Z " fill="#116DC6" transform="translate(374,262)"/>
<path d="M0 0 C0.66 0.33 1.32 0.66 2 1 C-0.64 3.64 -3.28 6.28 -6 9 C-6.99 8.67 -7.98 8.34 -9 8 C-6.03 5.36 -3.06 2.72 0 0 Z " fill="#379AD9" transform="translate(371,87)"/>
<path d="M0 0 C0.66 0.33 1.32 0.66 2 1 C0.71937515 2.7074998 -0.61767557 4.37373596 -2 6 C-2.66 6 -3.32 6 -4 6 C-4 8.31 -4 10.62 -4 13 C-4.33 13 -4.66 13 -5 13 C-5.61538462 5.73846154 -5.61538462 5.73846154 -2.5 2 C-1.675 1.34 -0.85 0.68 0 0 Z " fill="#4C80D8" transform="translate(611,576)"/>
<path d="M0 0 C3 1 3 1 4.5625 3.8125 C5.036875 4.864375 5.51125 5.91625 6 7 C6.5878125 8.175625 6.5878125 8.175625 7.1875 9.375 C7.455625 9.91125 7.72375 10.4475 8 11 C4.71573897 9.94434467 3.42848444 8.38339648 1.75 5.5 C0 2 0 2 0 0 Z " fill="#1251B2" transform="translate(327,513)"/>
<path d="M0 0 C0.99 0.495 0.99 0.495 2 1 C2.59355614 3.64860427 2.74209269 6.29197322 3 9 C2.01 9.33 1.02 9.66 0 10 C0 6.7 0 3.4 0 0 Z " fill="#0742A3" transform="translate(173,350)"/>
<path d="M0 0 C0.66 0.33 1.32 0.66 2 1 C-0.97 3.97 -3.94 6.94 -7 10 C-7 7 -7 7 -4.625 4.4375 C-3.75875 3.633125 -2.8925 2.82875 -2 2 C-1.34 1.34 -0.68 0.68 0 0 Z " fill="#BDCFEB" transform="translate(208,337)"/>
<path d="M0 0 C0.99 0.33 1.98 0.66 3 1 C-0.38583802 4.13107836 -2.71109462 4.33550778 -7.25 4.1875 C-8.86648438 4.14689453 -8.86648438 4.14689453 -10.515625 4.10546875 C-11.74539063 4.05326172 -11.74539063 4.05326172 -13 4 C-13 3.67 -13 3.34 -13 3 C-12.22914063 2.95101563 -11.45828125 2.90203125 -10.6640625 2.8515625 C-9.66117188 2.77679688 -8.65828125 2.70203125 -7.625 2.625 C-6.62726562 2.55539062 -5.62953125 2.48578125 -4.6015625 2.4140625 C-1.84491121 2.23636036 -1.84491121 2.23636036 0 0 Z " fill="#1380CA" transform="translate(719,483)"/>
<path d="M0 0 C0.33 0 0.66 0 1 0 C1.17615457 3.87540045 1.28341107 6.75515269 -1 10 C-1.99 10.33 -2.98 10.66 -4 11 C-2.7874262 7.27566618 -1.49140021 3.62197194 0 0 Z " fill="#3368C0" transform="translate(278,376)"/>
<path d="M0 0 C-1.5830577 4.2742558 -4.50568404 6.26531794 -8 9 C-6.68994234 5.06982701 -4.75047804 0 0 0 Z " fill="#CAE7F5" transform="translate(385,106)"/>
<path d="M0 0 C0.66 0.33 1.32 0.66 2 1 C0.515 3.475 0.515 3.475 -1 6 C-2.32 5.67 -3.64 5.34 -5 5 C-3.35 3.35 -1.7 1.7 0 0 Z " fill="#1E49A4" transform="translate(319,723)"/>
<path d="M0 0 C2.40072955 2.88087546 4.47291037 5.56404834 6 9 C5.34 9.66 4.68 10.32 4 11 C3.32591692 9.73308493 2.66099503 8.46129251 2 7.1875 C1.62875 6.47980469 1.2575 5.77210938 0.875 5.04296875 C0 3 0 3 0 0 Z " fill="#184EAA" transform="translate(405,492)"/>
<path d="M0 0 C1 2 1 2 0.3125 4.5 C-1.15567038 7.29651501 -2.09303901 7.93411431 -5 9 C-3.7508258 5.54074837 -2.32472205 2.85306797 0 0 Z " fill="#337ACB" transform="translate(108,387)"/>
<path d="M0 0 C0.66 0.33 1.32 0.66 2 1 C-1.96 4.465 -1.96 4.465 -6 8 C-6.66 7.67 -7.32 7.34 -8 7 C-5.36 4.69 -2.72 2.38 0 0 Z " fill="#337BCB" transform="translate(148,342)"/>
<path d="M0 0 C0.66 0.33 1.32 0.66 2 1 C1.71848913 2.31471568 1.42446661 3.62675767 1.125 4.9375 C0.96257812 5.66839844 0.80015625 6.39929688 0.6328125 7.15234375 C0 9 0 9 -2 10 C-1.54177532 6.53058454 -1.10868317 3.32604951 0 0 Z " fill="#0B80D4" transform="translate(356,108)"/>
<path d="M0 0 C0.66 0 1.32 0 2 0 C1.6875 3.375 1.6875 3.375 1 7 C0.01 7.66 -0.98 8.32 -2 9 C-1.34 6.03 -0.68 3.06 0 0 Z " fill="#0FA2DB" transform="translate(157,177)"/>
<path d="M0 0 C0.66 0.33 1.32 0.66 2 1 C0.8125 3.5 0.8125 3.5 -1 6 C-3.6875 6.3125 -3.6875 6.3125 -6 6 C-4 4 -2 2 0 0 Z " fill="#3C4ECA" transform="translate(493,675)"/>
<path d="M0 0 C0.33 0.66 0.66 1.32 1 2 C-0.32 3.65 -1.64 5.3 -3 7 C-3.99 6.67 -4.98 6.34 -6 6 C-4.02 4.02 -2.04 2.04 0 0 Z " fill="#367FCE" transform="translate(139,350)"/>
</svg>
